<svg id="svg" version="1.1" width="400" height="406.8965517241379" xmlns="http://www.w3.org/2000/svg" xmlns:xlink="http://www.w3.org/1999/xlink" style="display: block;"><g id="svgg"><path id="path0" d="M323.225 70.671 C 323.201 71.894,322.347 73.200,321.571 73.200 C 321.367 73.200,321.200 73.650,321.200 74.200 C 321.200 74.820,321.427 75.200,321.797 75.200 C 322.125 75.200,322.618 75.560,322.893 76.000 C 323.174 76.451,323.831 76.803,324.396 76.806 C 325.600 76.813,326.170 77.162,326.517 78.100 C 326.698 78.590,327.209 78.800,328.225 78.800 C 329.338 78.800,329.723 78.986,329.884 79.600 C 330.041 80.199,330.430 80.400,331.433 80.400 C 332.362 80.400,332.903 80.645,333.200 81.200 C 333.444 81.656,334.038 82.000,334.581 82.000 C 335.914 82.000,336.800 82.396,336.800 82.992 C 336.800 83.271,337.504 83.610,338.373 83.749 C 340.095 84.025,340.847 85.179,339.984 86.219 C 339.565 86.725,324.302 86.800,222.551 86.800 L 105.600 86.800 105.600 89.800 C 105.600 93.276,105.848 93.427,107.896 91.200 C 108.923 90.083,109.697 89.600,110.460 89.600 C 111.950 89.600,112.252 90.280,111.242 91.355 C 110.779 91.848,110.400 92.618,110.400 93.066 C 110.400 93.875,108.313 96.400,107.645 96.400 C 107.454 96.400,107.023 95.995,106.687 95.500 L 106.077 94.600 105.669 95.645 C 105.445 96.220,104.977 96.800,104.631 96.933 C 104.060 97.152,104.000 104.150,104.000 170.968 C 104.000 238.982,103.949 244.789,103.343 245.128 C 102.050 245.851,101.200 245.227,101.200 243.553 C 101.200 242.456,101.028 242.000,100.614 242.000 C 99.887 242.000,99.200 240.773,99.200 239.473 C 99.200 238.830,98.925 238.421,98.400 238.284 C 97.791 238.125,97.600 237.738,97.600 236.664 C 97.600 235.605,97.401 235.191,96.800 235.000 C 96.179 234.803,96.000 234.395,96.000 233.173 C 96.000 232.058,95.829 231.600,95.414 231.600 C 94.687 231.600,94.000 230.373,94.000 229.073 C 94.000 228.430,93.725 228.021,93.200 227.884 C 92.581 227.722,92.394 227.326,92.375 226.137 C 92.353 224.813,92.299 224.725,91.988 225.500 C 91.706 226.201,91.306 226.400,90.175 226.400 C 89.062 226.400,88.677 226.586,88.516 227.200 C 88.401 227.640,88.058 228.000,87.753 228.000 C 87.449 228.000,87.200 228.180,87.200 228.400 C 87.200 228.620,87.462 228.800,87.782 228.800 C 88.138 228.800,88.472 229.382,88.643 230.300 C 88.796 231.125,89.254 232.035,89.661 232.323 C 90.127 232.652,90.400 233.337,90.400 234.176 C 90.400 235.170,90.602 235.560,91.200 235.716 C 91.809 235.875,92.000 236.262,92.000 237.336 C 92.000 238.395,92.199 238.809,92.800 239.000 C 93.410 239.194,93.600 239.605,93.600 240.732 C 93.600 241.881,93.800 242.298,94.500 242.605 C 95.154 242.892,95.433 243.398,95.522 244.459 C 95.609 245.507,95.863 245.975,96.422 246.122 C 97.007 246.275,97.200 246.675,97.200 247.736 C 97.200 248.795,97.399 249.209,98.000 249.400 C 98.588 249.587,98.800 250.005,98.800 250.981 C 98.800 251.955,99.066 252.482,99.800 252.963 C 100.492 253.416,100.800 253.981,100.800 254.795 C 100.800 255.562,101.078 256.121,101.600 256.400 C 102.155 256.697,102.400 257.238,102.400 258.167 C 102.400 259.170,102.601 259.559,103.200 259.716 C 103.818 259.877,104.000 260.262,104.000 261.400 C 104.000 262.540,104.182 262.923,104.803 263.085 C 105.377 263.235,105.680 263.758,105.866 264.923 C 106.090 266.325,106.171 266.430,106.450 265.676 C 106.628 265.194,107.050 264.800,107.387 264.800 C 107.820 264.800,108.000 264.392,108.000 263.414 C 108.000 262.438,108.236 261.902,108.800 261.600 C 109.256 261.356,109.600 260.762,109.600 260.219 C 109.600 258.886,109.996 258.000,110.592 258.000 C 110.875 258.000,111.213 257.278,111.360 256.360 C 111.546 255.195,111.851 254.659,112.411 254.513 C 113.005 254.358,113.200 253.964,113.200 252.916 C 113.200 251.862,113.394 251.475,114.000 251.316 C 114.560 251.169,114.800 250.770,114.800 249.986 C 114.800 248.460,115.176 247.600,115.843 247.600 C 116.192 247.600,116.400 247.163,116.400 246.429 C 116.400 245.295,117.268 244.000,118.029 244.000 C 118.233 244.000,118.400 243.353,118.400 242.563 C 118.400 241.462,118.587 241.076,119.200 240.916 C 119.801 240.759,120.000 240.370,120.000 239.357 C 120.000 238.440,120.257 237.846,120.800 237.507 C 121.278 237.209,121.600 236.574,121.600 235.932 C 121.600 234.879,122.493 233.600,123.229 233.600 C 123.433 233.600,123.600 232.953,123.600 232.163 C 123.600 231.062,123.787 230.676,124.400 230.516 C 125.462 230.238,125.462 228.568,124.400 228.000 C 123.960 227.765,123.600 227.308,123.600 226.986 C 123.600 226.549,123.090 226.400,121.600 226.400 L 119.600 226.400 119.600 227.797 C 119.600 228.760,119.352 229.348,118.800 229.693 C 118.349 229.974,117.997 230.631,117.994 231.196 C 117.987 232.400,117.638 232.970,116.700 233.317 C 116.210 233.498,116.000 234.009,116.000 235.025 C 116.000 236.138,115.814 236.523,115.200 236.684 C 114.601 236.841,114.400 237.230,114.400 238.233 C 114.400 239.162,114.155 239.703,113.600 240.000 C 113.144 240.244,112.800 240.838,112.800 241.381 C 112.800 243.470,110.507 244.699,109.843 242.967 C 108.856 240.395,109.859 96.499,110.866 96.179 C 111.388 96.013,111.600 95.554,111.600 94.587 C 111.600 93.653,111.842 93.099,112.374 92.814 C 113.568 92.175,339.281 92.241,339.920 92.880 C 341.121 94.081,339.978 95.600,337.873 95.600 C 337.230 95.600,336.821 95.875,336.684 96.400 C 336.524 97.011,336.138 97.200,335.052 97.200 C 334.038 97.200,333.505 97.430,333.200 98.000 C 332.898 98.564,332.362 98.800,331.386 98.800 C 330.435 98.800,330.000 98.984,330.000 99.386 C 330.000 100.113,328.773 100.800,327.473 100.800 C 326.830 100.800,326.421 101.075,326.284 101.600 C 326.134 102.175,325.738 102.400,324.880 102.400 C 322.635 102.400,320.151 105.638,321.900 106.283 C 322.865 106.639,323.182 107.197,323.219 108.600 C 323.249 109.720,323.275 109.740,323.612 108.900 C 323.890 108.209,324.297 108.000,325.360 108.000 C 326.395 108.000,326.810 107.797,327.000 107.200 C 327.187 106.612,327.605 106.400,328.581 106.400 C 329.555 106.400,330.082 106.134,330.563 105.400 C 331.047 104.662,331.570 104.400,332.563 104.400 C 333.570 104.400,333.959 104.200,334.116 103.600 C 334.275 102.991,334.662 102.800,335.736 102.800 C 336.795 102.800,337.209 102.601,337.400 102.000 C 337.590 101.403,338.005 101.200,339.040 101.200 C 339.994 101.200,340.505 100.982,340.683 100.500 C 341.035 99.546,341.602 99.213,342.886 99.206 C 343.558 99.202,344.135 98.895,344.400 98.400 C 344.697 97.845,345.238 97.600,346.167 97.600 C 347.170 97.600,347.559 97.399,347.716 96.800 C 347.877 96.186,348.262 96.000,349.375 96.000 C 350.391 96.000,350.902 95.790,351.083 95.300 C 351.430 94.362,352.000 94.013,353.204 94.006 C 353.769 94.003,354.426 93.651,354.707 93.200 C 355.046 92.657,355.640 92.400,356.557 92.400 C 357.570 92.400,357.959 92.201,358.116 91.600 C 358.276 90.987,358.662 90.800,359.763 90.800 C 361.093 90.800,361.200 90.711,361.200 89.600 C 361.200 88.489,361.093 88.400,359.763 88.400 C 358.662 88.400,358.276 88.213,358.116 87.600 C 357.959 86.999,357.570 86.800,356.557 86.800 C 355.640 86.800,355.046 86.543,354.707 86.000 C 354.432 85.560,353.816 85.200,353.336 85.200 C 352.080 85.200,351.200 84.791,351.200 84.208 C 351.200 83.925,350.478 83.587,349.560 83.440 C 348.395 83.254,347.859 82.949,347.713 82.389 C 347.559 81.802,347.164 81.600,346.167 81.600 C 345.238 81.600,344.697 81.355,344.400 80.800 C 344.156 80.344,343.562 80.000,343.019 80.000 C 341.651 80.000,340.800 79.600,340.800 78.957 C 340.800 78.626,340.384 78.400,339.774 78.400 C 338.432 78.400,337.200 77.723,337.200 76.986 C 337.200 76.580,336.758 76.400,335.763 76.400 C 334.662 76.400,334.276 76.213,334.116 75.600 C 333.959 74.999,333.570 74.800,332.557 74.800 C 331.640 74.800,331.046 74.543,330.707 74.000 C 330.409 73.522,329.774 73.200,329.132 73.200 C 328.079 73.200,326.800 72.307,326.800 71.571 C 326.800 71.367,326.164 71.200,325.387 71.200 C 324.296 71.200,323.892 70.995,323.612 70.300 C 323.282 69.477,323.249 69.509,323.225 70.671 " stroke="none" fill="#000000" fill-rule="evenodd"></path><path id="path1" d="M0.000 203.400 L 0.000 406.800 200.000 406.800 L 400.000 406.800 400.000 203.400 L 400.000 0.000 200.000 0.000 L 0.000 0.000 0.000 203.400 M194.800 67.000 L 195.000 85.400 267.000 85.437 C 306.600 85.457,338.412 85.400,337.692 85.311 C 336.867 85.208,336.149 84.789,335.746 84.174 C 335.282 83.466,334.746 83.200,333.781 83.200 C 332.805 83.200,332.387 82.988,332.200 82.400 C 332.009 81.799,331.595 81.600,330.536 81.600 C 329.462 81.600,329.075 81.409,328.916 80.800 C 328.760 80.202,328.370 80.000,327.376 80.000 C 326.537 80.000,325.852 79.727,325.523 79.261 C 325.235 78.854,324.335 78.398,323.523 78.247 C 322.558 78.068,321.959 77.700,321.796 77.186 C 321.658 76.754,321.307 76.400,321.016 76.400 C 319.754 76.400,319.571 72.658,320.800 72.000 C 321.240 71.765,321.600 71.206,321.600 70.760 C 321.600 68.630,324.192 67.319,324.684 69.200 C 324.841 69.799,325.230 70.000,326.233 70.000 C 327.162 70.000,327.703 70.245,328.000 70.800 C 328.254 71.274,328.838 71.600,329.433 71.600 C 329.991 71.600,330.850 72.045,331.365 72.600 C 331.965 73.248,332.724 73.600,333.519 73.600 C 334.395 73.600,334.819 73.829,335.000 74.400 C 335.191 75.001,335.605 75.200,336.664 75.200 C 337.725 75.200,338.125 75.393,338.278 75.978 C 338.425 76.537,338.893 76.791,339.941 76.878 C 341.002 76.967,341.508 77.246,341.795 77.900 C 342.102 78.600,342.519 78.800,343.668 78.800 C 344.795 78.800,345.206 78.990,345.400 79.600 C 345.591 80.201,346.005 80.400,347.064 80.400 C 348.125 80.400,348.525 80.593,348.678 81.178 C 348.825 81.737,349.293 81.991,350.341 82.078 C 351.402 82.167,351.908 82.446,352.195 83.100 C 352.500 83.797,352.919 84.000,354.048 84.000 C 355.170 84.000,355.555 84.185,355.716 84.800 C 355.877 85.418,356.262 85.600,357.400 85.600 C 358.538 85.600,358.923 85.782,359.084 86.400 C 359.238 86.989,359.630 87.200,360.567 87.200 C 362.218 87.200,362.800 87.825,362.800 89.600 C 362.800 91.375,362.218 92.000,360.567 92.000 C 359.630 92.000,359.238 92.211,359.084 92.800 C 358.923 93.414,358.538 93.600,357.425 93.600 C 356.409 93.600,355.898 93.810,355.717 94.300 C 355.370 95.238,354.800 95.587,353.596 95.594 C 353.031 95.597,352.374 95.949,352.093 96.400 C 351.754 96.943,351.160 97.200,350.243 97.200 C 349.230 97.200,348.841 97.399,348.684 98.000 C 348.525 98.609,348.138 98.800,347.064 98.800 C 346.014 98.800,345.590 99.000,345.404 99.586 C 345.241 100.100,344.642 100.468,343.677 100.647 C 342.865 100.798,341.965 101.254,341.677 101.661 C 341.348 102.127,340.663 102.400,339.824 102.400 C 338.830 102.400,338.440 102.602,338.284 103.200 C 338.125 103.809,337.738 104.000,336.664 104.000 C 335.605 104.000,335.191 104.199,335.000 104.800 C 334.825 105.352,334.260 105.677,333.173 105.851 C 332.304 105.990,331.600 106.329,331.600 106.608 C 331.600 107.204,330.714 107.600,329.381 107.600 C 328.838 107.600,328.244 107.944,328.000 108.400 C 327.703 108.955,327.162 109.200,326.233 109.200 C 325.230 109.200,324.841 109.401,324.684 110.000 C 324.268 111.592,322.086 111.070,321.757 109.300 C 321.604 108.475,321.146 107.565,320.739 107.277 C 319.569 106.450,319.730 103.796,321.000 102.963 C 321.550 102.603,322.000 102.059,322.000 101.754 C 322.000 101.374,322.503 101.200,323.600 101.200 C 324.738 101.200,325.200 101.031,325.200 100.614 C 325.200 99.887,326.427 99.200,327.727 99.200 C 328.370 99.200,328.779 98.925,328.916 98.400 C 329.075 97.791,329.462 97.600,330.536 97.600 C 331.595 97.600,332.009 97.401,332.200 96.800 C 332.397 96.179,332.805 96.000,334.027 96.000 C 335.130 96.000,335.600 95.828,335.600 95.424 C 335.600 94.725,336.136 94.366,337.765 93.977 C 338.444 93.815,306.840 93.663,267.533 93.641 C 228.226 93.618,195.781 93.709,195.433 93.843 C 194.867 94.060,194.800 96.347,194.800 115.563 C 194.800 131.734,194.681 137.159,194.320 137.520 C 193.984 137.856,191.769 138.000,186.920 138.000 C 180.308 138.000,180.000 138.035,180.000 138.786 C 180.000 139.218,179.640 139.765,179.200 140.000 C 178.760 140.235,178.400 140.794,178.400 141.240 C 178.400 143.535,174.268 144.911,173.716 142.800 C 173.601 142.360,173.342 142.000,173.140 142.000 C 172.530 142.000,170.000 139.271,170.000 138.613 C 170.000 138.068,166.751 138.000,140.600 138.000 L 111.200 138.000 111.267 190.100 C 111.304 218.755,111.405 241.534,111.490 240.720 C 111.599 239.690,111.883 239.164,112.423 238.993 C 112.999 238.810,113.200 238.381,113.200 237.336 C 113.200 236.262,113.391 235.875,114.000 235.716 C 114.598 235.560,114.800 235.170,114.800 234.176 C 114.800 233.337,115.073 232.652,115.539 232.323 C 115.946 232.035,116.400 231.145,116.549 230.344 C 116.726 229.390,117.083 228.819,117.583 228.689 C 118.136 228.544,118.381 228.063,118.473 226.944 L 118.600 225.400 121.468 225.283 C 124.035 225.178,124.362 225.250,124.588 225.963 C 124.727 226.401,125.192 226.870,125.620 227.006 C 126.785 227.376,126.768 231.179,125.600 231.484 C 125.001 231.641,124.800 232.030,124.800 233.033 C 124.800 233.962,124.555 234.503,124.000 234.800 C 123.505 235.065,123.198 235.642,123.194 236.314 C 123.187 237.598,122.854 238.165,121.900 238.517 C 121.410 238.698,121.200 239.209,121.200 240.225 C 121.200 241.338,121.014 241.723,120.400 241.884 C 119.801 242.041,119.600 242.430,119.600 243.433 C 119.600 244.362,119.355 244.903,118.800 245.200 C 118.278 245.479,118.000 246.038,118.000 246.805 C 118.000 247.619,117.692 248.184,117.000 248.637 C 116.266 249.118,116.000 249.645,116.000 250.619 C 116.000 251.595,115.788 252.013,115.200 252.200 C 114.599 252.391,114.400 252.805,114.400 253.864 C 114.400 254.938,114.209 255.325,113.600 255.484 C 113.002 255.640,112.800 256.030,112.800 257.024 C 112.800 257.863,112.527 258.548,112.061 258.877 C 111.654 259.165,111.198 260.065,111.047 260.877 C 110.868 261.842,110.500 262.441,109.986 262.604 C 109.400 262.790,109.200 263.214,109.200 264.264 C 109.200 265.338,109.009 265.725,108.400 265.884 C 107.960 265.999,107.600 266.336,107.600 266.633 C 107.600 267.097,106.447 268.000,105.855 268.000 C 105.272 268.000,104.400 266.602,104.400 265.668 C 104.400 265.026,104.078 264.391,103.600 264.093 C 103.057 263.754,102.800 263.160,102.800 262.243 C 102.800 261.230,102.601 260.841,102.000 260.684 C 101.387 260.524,101.200 260.138,101.200 259.037 C 101.200 258.247,101.033 257.600,100.829 257.600 C 100.068 257.600,99.200 256.305,99.200 255.171 C 99.200 254.437,98.992 254.000,98.643 254.000 C 97.976 254.000,97.600 253.140,97.600 251.614 C 97.600 250.830,97.360 250.431,96.800 250.284 C 96.187 250.124,96.000 249.738,96.000 248.637 C 96.000 247.642,95.820 247.200,95.414 247.200 C 94.677 247.200,94.000 245.968,94.000 244.626 C 94.000 244.016,93.774 243.600,93.443 243.600 C 92.800 243.600,92.400 242.749,92.400 241.381 C 92.400 240.838,92.056 240.244,91.600 240.000 C 91.045 239.703,90.800 239.162,90.800 238.233 C 90.800 237.236,90.598 236.841,90.011 236.687 C 89.451 236.541,89.146 236.005,88.960 234.840 C 88.813 233.922,88.475 233.200,88.192 233.200 C 87.609 233.200,87.200 232.320,87.200 231.064 C 87.200 230.584,86.840 229.968,86.400 229.693 C 84.670 228.613,87.022 225.200,89.496 225.200 C 90.385 225.200,90.764 224.979,90.924 224.371 C 91.343 222.769,93.375 223.495,93.524 225.300 C 93.604 226.262,93.850 226.800,94.210 226.800 C 94.916 226.800,95.600 228.044,95.600 229.327 C 95.600 229.970,95.875 230.379,96.400 230.516 C 97.011 230.676,97.200 231.062,97.200 232.148 C 97.200 233.162,97.430 233.695,98.000 234.000 C 98.564 234.302,98.800 234.838,98.800 235.814 C 98.800 236.765,98.984 237.200,99.386 237.200 C 100.113 237.200,100.800 238.427,100.800 239.727 C 100.800 240.359,101.074 240.778,101.573 240.909 C 102.129 241.054,102.391 241.546,102.506 242.656 C 102.594 243.505,102.696 220.305,102.733 191.100 L 102.800 138.000 68.433 138.000 C 49.531 138.000,33.781 137.891,33.433 137.757 C 32.772 137.504,32.410 49.323,33.068 48.666 C 33.215 48.518,69.620 48.443,113.968 48.499 L 194.600 48.600 194.800 67.000 M186.684 141.600 C 186.833 142.169,187.230 142.400,188.060 142.400 C 190.444 142.400,192.860 145.856,191.200 146.893 C 190.760 147.168,190.400 147.784,190.400 148.264 C 190.400 150.164,190.058 150.400,187.304 150.400 C 184.830 150.400,184.625 150.326,183.347 148.972 C 181.535 147.050,181.708 144.000,183.629 144.000 C 183.833 144.000,184.000 143.400,184.000 142.667 C 184.000 140.661,186.209 139.783,186.684 141.600 M199.767 149.443 C 200.115 149.576,200.400 149.942,200.400 150.255 C 200.400 150.569,200.715 150.941,201.100 151.083 C 203.049 151.803,202.998 155.829,201.013 157.813 C 199.335 159.491,196.492 159.840,196.119 158.413 C 196.006 157.981,195.592 157.525,195.200 157.400 C 194.808 157.275,194.394 156.819,194.281 156.387 C 194.167 155.954,193.800 155.600,193.464 155.600 C 191.789 155.600,192.331 153.954,194.791 151.577 C 197.187 149.261,198.182 148.835,199.767 149.443 M212.217 158.531 C 214.950 161.199,215.149 162.665,213.053 164.700 C 211.387 166.318,206.905 166.687,206.526 165.237 C 206.416 164.817,205.991 164.386,205.581 164.279 C 204.091 163.890,204.072 160.285,205.558 159.813 C 205.973 159.681,206.406 159.219,206.519 158.787 C 206.633 158.354,206.991 158.000,207.316 158.000 C 207.641 158.000,208.001 157.640,208.116 157.200 C 208.478 155.813,209.910 156.278,212.217 158.531 M223.413 166.187 C 224.176 166.949,224.800 167.738,224.800 167.940 C 224.800 168.142,225.160 168.401,225.600 168.516 C 226.685 168.800,226.714 170.793,225.637 171.074 C 225.217 171.184,224.784 171.617,224.674 172.037 C 224.565 172.457,224.200 172.800,223.864 172.800 C 223.529 172.800,223.143 173.151,223.006 173.580 C 222.618 174.802,221.177 175.059,220.361 174.051 C 219.982 173.583,219.374 173.200,219.010 173.200 C 217.236 173.200,216.800 172.488,216.800 169.586 C 216.800 167.479,216.935 166.800,217.354 166.800 C 217.659 166.800,218.203 166.350,218.563 165.800 C 219.577 164.253,221.644 164.418,223.413 166.187 M232.629 171.906 C 232.865 172.068,233.175 172.515,233.317 172.900 C 233.459 173.285,233.851 173.600,234.187 173.600 C 234.524 173.600,234.800 173.781,234.800 174.003 C 234.800 174.224,235.250 174.797,235.800 175.275 C 237.311 176.589,237.170 178.632,235.453 180.300 C 233.830 181.876,231.531 182.119,230.707 180.800 C 230.409 180.322,229.774 180.000,229.132 180.000 C 228.097 180.000,226.800 179.110,226.800 178.400 C 226.800 177.941,227.962 176.800,228.429 176.800 C 228.633 176.800,228.800 176.153,228.800 175.363 C 228.800 174.262,228.987 173.876,229.600 173.716 C 230.040 173.601,230.400 173.267,230.400 172.973 C 230.400 172.090,231.870 171.386,232.629 171.906 M245.200 181.200 C 245.444 181.656,246.038 182.000,246.581 182.000 C 248.458 182.000,248.800 182.372,248.800 184.416 C 248.800 185.978,248.651 186.393,248.020 186.594 C 247.592 186.730,247.130 187.192,246.994 187.620 C 246.857 188.049,246.500 188.400,246.200 188.400 C 245.900 188.400,245.545 188.743,245.412 189.163 C 244.953 190.609,243.052 190.625,242.596 189.186 C 242.434 188.676,241.900 188.408,240.880 188.323 C 239.036 188.170,238.349 184.883,239.979 184.011 C 240.552 183.704,240.800 183.174,240.800 182.253 C 240.800 180.554,240.987 180.400,243.053 180.400 C 244.362 180.400,244.874 180.590,245.200 181.200 M255.029 187.506 C 255.265 187.668,255.575 188.115,255.717 188.500 C 255.859 188.885,256.238 189.200,256.560 189.200 C 256.883 189.200,257.257 189.550,257.393 189.977 C 257.567 190.527,258.072 190.790,259.120 190.877 C 260.907 191.026,261.619 193.061,260.029 193.476 C 259.573 193.596,259.200 193.936,259.200 194.233 C 259.200 194.529,258.840 194.965,258.400 195.200 C 257.896 195.470,257.600 196.038,257.600 196.734 C 257.600 199.178,256.086 199.397,254.007 197.255 C 253.066 196.286,251.981 195.610,251.097 195.445 C 249.192 195.087,248.730 192.400,250.573 192.400 C 250.867 192.400,251.201 192.040,251.316 191.600 C 251.431 191.160,251.812 190.800,252.163 190.800 C 252.617 190.800,252.800 190.421,252.800 189.480 C 252.800 187.636,253.855 186.702,255.029 187.506 M269.046 198.100 C 271.304 200.320,271.788 201.760,270.423 202.193 C 269.873 202.367,269.610 202.872,269.523 203.920 L 269.400 205.400 267.333 205.520 C 265.562 205.622,265.230 205.525,265.014 204.843 C 264.832 204.271,264.342 204.011,263.280 203.923 L 261.800 203.800 261.679 201.700 C 261.613 200.545,261.730 199.600,261.939 199.600 C 262.423 199.600,265.200 196.841,265.200 196.360 C 265.200 195.342,267.129 196.214,269.046 198.100 M279.226 204.814 C 279.652 205.042,280.000 205.471,280.000 205.767 C 280.000 206.064,280.360 206.401,280.800 206.516 C 282.306 206.910,281.942 211.287,280.260 213.020 C 278.738 214.587,277.821 214.761,277.200 213.600 C 276.950 213.132,276.362 212.800,275.786 212.800 C 274.256 212.800,271.451 209.826,272.005 208.791 C 272.238 208.356,272.692 208.000,273.014 208.000 C 273.336 208.000,273.600 207.713,273.600 207.363 C 273.600 207.012,273.960 206.631,274.400 206.516 C 274.840 206.401,275.200 206.094,275.200 205.833 C 275.200 204.528,277.571 203.928,279.226 204.814 M290.186 212.357 C 290.318 212.773,290.781 213.206,291.213 213.319 C 291.646 213.433,292.000 213.800,292.000 214.136 C 292.000 214.471,292.360 214.860,292.800 215.000 C 293.946 215.364,293.982 219.025,292.843 219.386 C 292.427 219.518,291.994 219.981,291.881 220.413 C 291.570 221.602,286.030 221.602,285.719 220.413 C 285.606 219.981,285.173 219.518,284.757 219.386 C 284.151 219.194,284.000 218.758,284.000 217.200 C 284.000 215.642,284.151 215.206,284.757 215.014 C 285.173 214.882,285.606 214.419,285.719 213.987 C 285.833 213.554,286.200 213.200,286.536 213.200 C 286.871 213.200,287.260 212.840,287.400 212.400 C 287.744 211.317,289.846 211.284,290.186 212.357 M324.800 218.587 C 324.800 219.595,325.007 220.012,325.600 220.200 C 326.171 220.381,326.400 220.805,326.400 221.681 C 326.400 222.476,326.752 223.235,327.400 223.835 C 327.955 224.350,328.400 225.209,328.400 225.767 C 328.400 226.362,328.726 226.946,329.200 227.200 C 329.755 227.497,330.000 228.038,330.000 228.967 C 330.000 229.970,330.201 230.359,330.800 230.516 C 331.411 230.676,331.600 231.062,331.600 232.148 C 331.600 233.162,331.830 233.695,332.400 234.000 C 332.946 234.292,333.200 234.838,333.200 235.719 C 333.200 236.674,333.434 237.113,334.100 237.405 C 334.754 237.692,335.033 238.198,335.122 239.259 C 335.209 240.307,335.463 240.775,336.022 240.922 C 336.607 241.075,336.800 241.475,336.800 242.536 C 336.800 243.595,336.999 244.009,337.600 244.200 C 338.171 244.381,338.400 244.805,338.400 245.681 C 338.400 246.476,338.752 247.235,339.400 247.835 C 340.028 248.417,340.400 249.197,340.400 249.934 C 340.400 250.770,340.630 251.167,341.200 251.316 C 341.809 251.475,342.000 251.862,342.000 252.936 C 342.000 253.995,342.199 254.409,342.800 254.600 C 343.692 254.883,344.001 258.505,343.177 259.014 C 342.503 259.431,340.800 258.842,340.800 258.192 C 340.800 257.711,340.093 257.600,337.029 257.600 C 333.327 257.600,332.000 257.170,332.000 255.971 C 332.000 255.767,330.183 255.600,327.963 255.600 C 324.262 255.600,323.908 255.533,323.716 254.800 C 323.522 254.060,323.170 254.000,318.986 254.000 C 314.140 254.000,313.200 253.831,313.200 252.957 C 313.200 252.520,312.386 252.400,309.429 252.400 C 305.727 252.400,304.400 251.970,304.400 250.771 C 304.400 250.567,302.979 250.400,301.243 250.400 C 297.878 250.400,297.600 250.232,297.600 248.200 C 297.600 246.850,298.003 246.000,298.643 246.000 C 298.974 246.000,299.200 245.584,299.200 244.974 C 299.200 242.845,299.796 242.400,302.652 242.400 C 304.938 242.400,305.302 242.503,305.484 243.200 C 305.674 243.925,306.030 244.000,309.273 244.000 C 312.963 244.000,314.400 244.396,314.400 245.414 C 314.400 245.873,315.008 246.000,317.200 246.000 C 318.800 246.000,320.000 245.829,320.000 245.600 C 320.000 245.380,319.713 245.200,319.363 245.200 C 319.012 245.200,318.635 244.857,318.526 244.437 C 318.416 244.017,317.983 243.584,317.563 243.474 C 316.486 243.193,316.515 241.200,317.600 240.916 C 318.040 240.801,318.400 240.539,318.400 240.334 C 318.400 238.087,323.323 236.298,324.577 238.089 L 325.200 238.978 325.200 237.916 C 325.200 237.205,324.935 236.770,324.400 236.600 C 323.829 236.419,323.600 235.995,323.600 235.119 C 323.600 234.324,323.248 233.565,322.600 232.965 C 322.045 232.450,321.600 231.591,321.600 231.033 C 321.600 230.438,321.274 229.854,320.800 229.600 C 320.245 229.303,320.000 228.762,320.000 227.833 C 320.000 226.830,319.799 226.441,319.200 226.284 C 318.589 226.124,318.400 225.738,318.400 224.652 C 318.400 223.638,318.170 223.105,317.600 222.800 C 316.544 222.235,316.519 220.399,317.563 220.126 C 317.983 220.016,318.416 219.583,318.526 219.163 C 318.676 218.586,319.085 218.400,320.200 218.400 C 321.325 218.400,321.723 218.215,321.878 217.621 C 322.367 215.752,324.800 216.556,324.800 218.587 M300.400 220.800 C 300.661 221.287,301.238 221.600,301.874 221.600 C 304.102 221.600,306.748 225.775,304.837 226.274 C 304.417 226.384,303.984 226.817,303.874 227.237 C 303.765 227.657,303.409 228.000,303.084 228.000 C 302.759 228.000,302.401 228.352,302.289 228.782 C 301.890 230.306,298.118 230.337,297.721 228.819 C 297.614 228.409,297.183 227.984,296.763 227.874 C 295.313 227.495,295.682 223.013,297.300 221.347 C 298.783 219.820,299.781 219.644,300.400 220.800 M312.600 229.600 C 312.740 230.040,313.129 230.400,313.464 230.400 C 313.800 230.400,314.167 230.754,314.281 231.187 C 314.394 231.619,314.827 232.082,315.243 232.214 C 316.587 232.640,316.090 234.094,313.846 236.300 C 311.542 238.567,310.687 238.849,309.907 237.600 C 309.632 237.160,309.016 236.800,308.536 236.800 C 306.748 236.800,306.400 236.407,306.400 234.384 C 306.400 232.805,306.546 232.408,307.200 232.200 C 307.785 232.014,308.000 231.595,308.000 230.640 C 308.000 228.935,308.179 228.800,310.440 228.800 C 311.995 228.800,312.393 228.947,312.600 229.600 M326.441 241.737 C 326.409 242.919,326.215 243.323,325.600 243.484 C 324.938 243.657,324.800 244.030,324.800 245.647 L 324.800 247.600 327.700 247.573 C 330.083 247.551,330.440 247.469,329.700 247.112 C 329.042 246.795,328.800 246.330,328.800 245.388 C 328.800 244.525,328.525 243.915,327.969 243.546 C 327.513 243.243,326.991 242.366,326.810 241.597 L 326.482 240.200 326.441 241.737 M88.200 339.600 L 88.200 357.000 66.400 357.000 L 44.600 357.000 44.486 352.858 C 44.348 347.888,44.511 347.600,47.449 347.600 L 49.600 347.600 49.600 339.600 L 49.600 331.600 47.480 331.600 C 46.314 331.600,45.144 331.384,44.880 331.120 C 44.365 330.605,44.179 322.754,44.670 322.263 C 44.819 322.115,54.674 322.040,66.570 322.097 L 88.200 322.200 88.200 339.600 M274.320 322.480 C 274.909 323.069,274.952 326.169,274.386 327.226 C 274.017 327.915,273.515 328.000,269.800 328.000 C 265.116 328.000,264.800 327.810,264.800 325.000 C 264.800 322.197,265.124 322.000,269.734 322.000 C 272.394 322.000,274.009 322.169,274.320 322.480 M103.520 329.280 C 103.867 329.627,104.000 332.453,104.000 339.480 L 104.000 349.200 111.200 349.200 L 118.400 349.200 118.400 339.449 C 118.400 327.868,117.972 328.728,123.658 328.886 L 127.800 329.000 127.905 346.200 C 128.027 366.211,128.493 364.403,123.224 364.394 C 118.739 364.386,118.644 364.309,118.400 360.516 L 118.200 357.400 106.400 357.200 L 94.600 357.000 94.495 343.403 C 94.437 335.924,94.476 329.579,94.582 329.303 C 94.845 328.617,102.837 328.597,103.520 329.280 M167.400 343.000 L 167.400 357.000 163.258 357.114 C 157.572 357.272,158.000 358.132,158.000 346.551 L 158.000 336.800 150.807 336.800 L 143.614 336.800 143.507 346.900 L 143.400 357.000 138.800 357.000 L 134.200 357.000 134.095 343.403 C 134.037 335.924,134.077 329.577,134.184 329.298 C 134.337 328.898,137.850 328.813,150.889 328.896 L 167.400 329.000 167.400 343.000 M207.186 329.574 C 207.446 330.060,207.600 335.043,207.600 343.000 C 207.600 350.957,207.446 355.940,207.186 356.426 C 206.604 357.514,174.259 357.651,173.843 356.567 C 173.709 356.219,173.600 352.454,173.600 348.200 C 173.600 343.946,173.709 340.181,173.843 339.833 C 174.057 339.276,175.491 339.200,185.843 339.200 L 197.600 339.200 197.600 338.000 L 197.600 336.800 186.374 336.800 C 179.400 336.800,174.854 336.643,174.374 336.386 C 173.451 335.892,173.214 330.146,174.080 329.280 C 175.021 328.339,206.675 328.619,207.186 329.574 M260.600 343.000 L 260.600 357.000 256.232 357.114 C 250.772 357.257,251.214 358.189,251.206 346.500 L 251.200 336.800 246.600 336.800 L 242.000 336.800 242.000 346.551 C 242.000 358.132,242.428 357.272,236.742 357.114 L 232.600 357.000 232.493 346.900 L 232.386 336.800 227.600 336.800 L 222.814 336.800 222.707 346.900 L 222.600 357.000 218.458 357.114 C 215.748 357.189,214.124 357.069,213.758 356.765 C 212.997 356.133,212.925 330.035,213.683 329.277 C 214.052 328.908,219.658 328.818,237.383 328.897 L 260.600 329.000 260.600 343.000 M274.386 329.574 C 274.646 330.060,274.800 335.043,274.800 343.000 C 274.800 358.370,275.212 357.200,269.800 357.200 C 264.388 357.200,264.800 358.370,264.800 343.000 C 264.800 327.630,264.388 328.800,269.800 328.800 C 273.515 328.800,274.017 328.885,274.386 329.574 M313.920 329.280 C 314.646 330.006,314.578 338.954,313.842 339.565 C 313.476 339.869,311.852 339.989,309.142 339.914 L 305.000 339.800 304.876 338.300 L 304.752 336.800 297.376 336.800 L 290.000 336.800 290.000 343.000 L 290.000 349.200 297.376 349.200 L 304.752 349.200 304.876 347.700 L 305.000 346.200 309.142 346.086 C 311.852 346.011,313.476 346.131,313.842 346.435 C 314.578 347.046,314.646 355.994,313.920 356.720 C 313.230 357.410,281.570 357.410,280.880 356.720 C 280.526 356.366,280.400 352.764,280.400 343.000 C 280.400 333.236,280.526 329.634,280.880 329.280 C 281.570 328.590,313.230 328.590,313.920 329.280 M353.520 329.280 C 354.386 330.146,354.149 335.892,353.226 336.386 C 352.746 336.643,348.200 336.800,341.226 336.800 L 330.000 336.800 330.000 338.000 L 330.000 339.200 341.757 339.200 C 352.109 339.200,353.543 339.276,353.757 339.833 C 353.891 340.181,354.000 343.946,354.000 348.200 C 354.000 352.454,353.891 356.219,353.757 356.567 C 353.541 357.130,351.705 357.200,337.171 357.200 C 318.434 357.200,320.000 357.562,320.000 353.226 C 320.000 349.066,319.566 349.200,333.027 349.200 L 344.453 349.200 344.327 348.100 L 344.200 347.000 332.600 346.897 C 322.264 346.806,320.946 346.721,320.500 346.121 C 319.866 345.267,319.791 330.738,320.414 329.574 C 320.925 328.619,352.579 328.339,353.520 329.280 M60.800 339.600 L 60.800 347.600 69.000 347.600 L 77.200 347.600 77.200 339.600 L 77.200 331.600 69.000 331.600 L 60.800 331.600 60.800 339.600 M183.467 347.067 C 183.320 347.213,183.200 347.753,183.200 348.267 L 183.200 349.200 190.400 349.200 L 197.600 349.200 197.600 348.000 L 197.600 346.800 190.667 346.800 C 186.853 346.800,183.613 346.920,183.467 347.067 " stroke="none" fill="#ffffff" fill-rule="evenodd"></path><path id="path2" d="M107.896 91.200 C 107.087 92.080,106.239 92.800,106.012 92.800 C 105.264 92.800,105.583 94.340,106.546 95.379 C 107.066 95.941,107.605 96.400,107.742 96.400 C 108.335 96.400,110.400 93.810,110.400 93.066 C 110.400 92.618,110.779 91.848,111.242 91.355 C 112.252 90.280,111.950 89.600,110.460 89.600 C 109.697 89.600,108.923 90.083,107.896 91.200 M116.279 97.281 C 113.972 99.595,113.692 101.200,115.597 101.200 C 116.360 101.200,116.974 101.490,117.293 102.000 C 117.896 102.965,120.400 103.148,120.400 102.227 C 120.400 101.912,120.760 101.540,121.200 101.400 C 122.596 100.957,122.172 99.410,120.079 97.317 L 118.158 95.396 116.279 97.281 M127.300 105.056 C 125.975 106.487,126.183 107.422,128.302 109.540 L 130.204 111.442 132.102 109.538 C 134.527 107.105,134.723 105.600,132.614 105.600 C 131.638 105.600,131.102 105.364,130.800 104.800 C 130.213 103.703,128.432 103.834,127.300 105.056 M139.468 112.065 C 138.872 112.670,138.400 113.601,138.400 114.171 C 138.400 114.760,138.061 115.405,137.600 115.693 C 136.424 116.427,136.621 116.800,138.186 116.800 C 139.162 116.800,139.698 117.036,140.000 117.600 C 140.692 118.893,141.905 118.533,144.038 116.400 C 145.922 114.516,145.979 114.400,145.021 114.400 C 144.362 114.400,143.396 113.800,142.271 112.691 L 140.537 110.981 139.468 112.065 M150.667 119.467 C 150.520 119.613,150.400 120.233,150.400 120.844 C 150.400 121.508,150.072 122.184,149.586 122.525 C 148.793 123.080,148.823 123.148,150.689 125.085 L 152.607 127.075 154.504 125.096 C 156.749 122.753,157.065 121.204,155.300 121.194 C 154.003 121.187,153.436 120.856,153.083 119.900 C 152.831 119.216,151.208 118.925,150.667 119.467 M162.396 127.700 C 162.393 128.712,162.039 129.310,160.800 130.400 C 158.866 132.101,158.821 132.399,160.500 132.404 C 161.512 132.407,162.110 132.761,163.200 134.000 C 164.893 135.925,165.200 135.977,165.200 134.339 C 165.200 133.373,165.588 132.719,166.857 131.548 C 168.178 130.328,168.383 129.968,167.872 129.772 C 167.519 129.637,167.121 129.183,166.988 128.763 C 166.813 128.210,166.373 128.000,165.387 128.000 C 164.438 128.000,163.899 127.759,163.600 127.200 C 162.959 126.002,162.401 126.234,162.396 127.700 M173.103 136.892 C 171.417 138.656,171.295 138.900,172.003 139.085 C 172.441 139.200,172.800 139.559,172.800 139.884 C 172.800 140.209,173.154 140.567,173.587 140.681 C 174.019 140.794,174.482 141.227,174.614 141.643 C 175.086 143.131,176.667 142.591,176.946 140.847 C 177.121 139.753,177.431 139.233,177.997 139.085 C 179.287 138.748,179.102 136.800,177.781 136.800 C 177.220 136.800,176.365 136.374,175.881 135.854 L 175.000 134.908 173.103 136.892 M185.219 143.000 C 185.182 144.403,184.865 144.961,183.900 145.317 C 183.024 145.640,182.935 147.600,183.797 147.600 C 184.125 147.600,184.618 147.960,184.893 148.400 C 185.279 149.018,185.826 149.200,187.296 149.200 L 189.200 149.200 189.200 147.763 C 189.200 146.669,189.388 146.276,189.987 146.119 C 191.262 145.786,188.859 143.600,187.218 143.600 C 186.302 143.600,185.879 143.363,185.612 142.700 C 185.275 141.860,185.249 141.880,185.219 143.000 M196.200 152.208 C 195.320 153.186,194.330 154.002,194.000 154.020 C 193.619 154.042,193.726 154.211,194.291 154.484 C 194.781 154.721,195.288 155.249,195.418 155.657 C 195.548 156.066,195.900 156.400,196.200 156.400 C 196.500 156.400,196.860 156.760,197.000 157.200 C 197.695 159.391,201.200 156.769,201.200 154.058 C 201.200 152.836,201.020 152.397,200.443 152.214 C 200.027 152.082,199.594 151.619,199.481 151.187 C 199.149 149.917,197.915 150.301,196.200 152.208 M208.480 158.748 C 207.973 159.327,207.433 159.993,207.280 160.229 C 207.126 160.465,206.685 160.775,206.300 160.917 C 204.239 161.677,207.087 164.800,209.842 164.800 C 211.184 164.800,211.600 164.649,211.600 164.163 C 211.600 163.812,211.960 163.431,212.400 163.316 C 212.957 163.170,213.200 162.770,213.200 162.000 C 213.200 161.230,212.957 160.830,212.400 160.684 C 211.960 160.569,211.600 160.188,211.600 159.837 C 211.600 159.487,211.352 159.200,211.049 159.200 C 210.746 159.200,210.251 158.862,209.949 158.448 C 209.421 157.726,209.365 157.737,208.480 158.748 M219.600 166.586 C 219.600 166.908,219.240 167.365,218.800 167.600 C 217.479 168.307,217.643 171.600,219.000 171.600 C 219.550 171.600,220.360 171.960,220.800 172.400 C 221.749 173.349,222.000 173.397,222.000 172.627 C 222.000 172.312,222.360 171.940,222.800 171.800 C 223.240 171.660,223.600 171.300,223.600 171.000 C 223.600 170.700,224.005 170.325,224.500 170.168 L 225.400 169.882 224.535 169.495 C 224.059 169.283,223.581 168.769,223.472 168.354 C 223.364 167.939,223.009 167.600,222.684 167.600 C 222.359 167.600,221.999 167.240,221.884 166.800 C 221.632 165.838,219.600 165.647,219.600 166.586 M230.900 174.295 C 230.405 174.808,230.000 175.567,230.000 175.981 C 230.000 177.160,229.566 178.000,228.957 178.000 C 228.651 178.000,228.400 178.180,228.400 178.400 C 228.400 178.620,229.047 178.800,229.837 178.800 C 230.938 178.800,231.324 178.987,231.484 179.600 C 231.785 180.752,233.070 180.591,234.431 179.231 C 235.791 177.870,235.952 176.585,234.800 176.284 C 234.360 176.169,234.000 175.788,234.000 175.437 C 234.000 175.087,233.827 174.800,233.616 174.800 C 233.404 174.800,232.909 174.476,232.516 174.081 C 231.827 173.389,231.766 173.397,230.900 174.295 M242.000 182.986 C 242.000 183.962,241.764 184.498,241.200 184.800 C 239.997 185.444,240.119 187.200,241.367 187.200 C 242.748 187.200,243.600 187.598,243.600 188.243 C 243.600 188.549,243.780 188.800,244.000 188.800 C 244.220 188.800,244.400 188.542,244.400 188.227 C 244.400 187.912,244.741 187.546,245.157 187.414 C 245.573 187.282,246.006 186.819,246.119 186.387 C 246.233 185.954,246.612 185.600,246.963 185.600 C 247.404 185.600,247.600 185.231,247.600 184.400 C 247.600 183.298,247.487 183.200,246.214 183.200 C 245.238 183.200,244.702 182.964,244.400 182.400 C 243.624 180.951,242.000 181.347,242.000 182.986 M254.013 189.816 C 254.003 190.716,253.580 191.419,252.386 192.516 C 250.818 193.958,250.802 194.000,251.801 194.000 C 252.498 194.000,253.407 194.594,254.615 195.837 L 256.400 197.673 256.400 196.390 C 256.400 195.418,256.788 194.729,258.000 193.553 C 259.514 192.085,259.548 192.000,258.633 192.000 C 257.244 192.000,256.400 191.601,256.400 190.945 C 256.400 190.631,256.085 190.257,255.700 190.112 C 255.315 189.968,254.781 189.568,254.513 189.225 C 254.099 188.695,254.024 188.784,254.013 189.816 M266.000 197.837 C 266.000 198.188,265.657 198.565,265.237 198.674 C 264.817 198.784,264.384 199.217,264.274 199.637 C 264.165 200.057,263.788 200.400,263.437 200.400 C 262.996 200.400,262.800 200.769,262.800 201.600 C 262.800 202.711,262.907 202.800,264.237 202.800 C 265.338 202.800,265.724 202.987,265.884 203.600 C 266.302 205.199,268.400 204.667,268.400 202.963 C 268.400 201.862,268.587 201.476,269.200 201.316 C 269.640 201.201,270.000 200.969,270.000 200.800 C 270.000 200.631,269.640 200.399,269.200 200.284 C 268.760 200.169,268.400 199.788,268.400 199.437 C 268.400 199.087,268.113 198.800,267.763 198.800 C 267.412 198.800,267.031 198.440,266.916 198.000 C 266.667 197.048,266.000 196.929,266.000 197.837 M275.200 207.524 L 273.400 209.410 274.263 210.254 C 274.738 210.718,275.773 211.219,276.563 211.367 C 277.430 211.529,278.000 211.867,278.000 212.218 C 278.000 213.007,278.190 212.957,279.379 211.854 C 280.827 210.512,280.770 208.481,279.240 206.842 C 277.722 205.217,277.340 205.282,275.200 207.524 M288.400 213.373 C 288.400 213.688,288.059 214.054,287.643 214.186 C 287.227 214.318,286.794 214.781,286.681 215.213 C 286.567 215.646,286.188 216.000,285.837 216.000 C 284.838 216.000,284.984 218.250,286.000 218.516 C 286.440 218.631,286.800 219.012,286.800 219.363 C 286.800 219.861,287.237 220.000,288.800 220.000 C 290.363 220.000,290.800 219.861,290.800 219.363 C 290.800 219.012,291.160 218.631,291.600 218.516 C 292.157 218.370,292.400 217.970,292.400 217.200 C 292.400 216.430,292.157 216.030,291.600 215.884 C 291.160 215.769,290.800 215.400,290.800 215.064 C 290.800 214.729,290.440 214.340,290.000 214.200 C 289.560 214.060,289.200 213.688,289.200 213.373 C 289.200 213.058,289.020 212.800,288.800 212.800 C 288.580 212.800,288.400 213.058,288.400 213.373 M322.704 218.781 C 322.321 219.232,321.564 219.600,321.022 219.600 C 319.484 219.600,317.787 221.458,318.821 222.011 C 319.355 222.297,319.600 222.850,319.600 223.767 C 319.600 224.770,319.801 225.159,320.400 225.316 C 320.992 225.471,321.200 225.862,321.200 226.817 C 321.200 227.681,321.531 228.415,322.200 229.035 C 322.750 229.545,323.200 230.377,323.200 230.885 C 323.200 231.392,323.560 232.032,324.000 232.307 C 324.543 232.646,324.800 233.240,324.800 234.157 C 324.800 235.170,324.999 235.559,325.600 235.716 C 326.218 235.877,326.400 236.262,326.400 237.400 C 326.400 238.532,326.584 238.923,327.190 239.082 C 327.719 239.220,328.070 239.769,328.251 240.744 C 328.400 241.545,328.854 242.435,329.261 242.723 C 329.727 243.052,330.000 243.737,330.000 244.576 C 330.000 245.586,330.200 245.959,330.829 246.124 C 331.466 246.290,331.629 246.603,331.529 247.470 L 331.400 248.600 327.600 248.600 L 323.800 248.600 323.683 245.732 C 323.578 243.142,323.645 242.840,324.383 242.605 C 325.549 242.235,325.399 240.937,324.031 239.569 C 322.487 238.025,322.248 238.070,320.064 240.318 L 318.200 242.237 319.687 243.618 C 322.465 246.201,321.709 247.200,316.977 247.200 C 314.263 247.200,313.964 247.117,313.363 246.200 C 312.738 245.246,312.528 245.200,308.781 245.200 C 305.205 245.200,304.831 245.128,304.600 244.400 C 304.057 242.689,300.951 243.297,300.651 245.173 C 300.477 246.260,300.152 246.825,299.600 247.000 C 297.280 247.736,298.673 249.200,301.700 249.206 C 304.775 249.213,305.305 249.383,305.717 250.500 C 305.939 251.104,306.533 251.200,310.025 251.200 C 313.738 251.200,314.092 251.266,314.284 252.000 C 314.478 252.743,314.830 252.800,319.243 252.800 C 323.560 252.800,324.039 252.873,324.493 253.600 C 324.932 254.303,325.429 254.401,328.596 254.406 C 332.372 254.413,332.894 254.556,333.317 255.700 C 333.539 256.303,334.132 256.400,337.600 256.400 C 341.401 256.400,341.646 256.450,341.988 257.300 C 342.320 258.127,342.351 258.098,342.375 256.947 C 342.393 256.017,342.193 255.639,341.600 255.484 C 340.991 255.325,340.800 254.938,340.800 253.864 C 340.800 252.805,340.601 252.391,340.000 252.200 C 339.412 252.013,339.200 251.595,339.200 250.619 C 339.200 249.645,338.934 249.118,338.200 248.637 C 337.462 248.153,337.200 247.630,337.200 246.637 C 337.200 245.630,337.000 245.241,336.400 245.084 C 335.791 244.925,335.600 244.538,335.600 243.464 C 335.600 242.405,335.401 241.991,334.800 241.800 C 334.229 241.619,334.000 241.195,334.000 240.319 C 334.000 239.524,333.648 238.765,333.000 238.165 C 332.445 237.650,332.000 236.791,332.000 236.233 C 332.000 235.638,331.674 235.054,331.200 234.800 C 330.645 234.503,330.400 233.962,330.400 233.033 C 330.400 232.030,330.199 231.641,329.600 231.484 C 329.008 231.329,328.800 230.938,328.800 229.983 C 328.800 229.119,328.469 228.385,327.800 227.765 C 327.245 227.250,326.800 226.391,326.800 225.833 C 326.800 225.238,326.474 224.654,326.000 224.400 C 325.445 224.103,325.200 223.562,325.200 222.633 C 325.200 221.645,324.997 221.240,324.427 221.091 C 323.874 220.947,323.617 220.471,323.527 219.426 C 323.402 217.985,323.389 217.976,322.704 218.781 M298.821 221.737 C 298.809 222.143,298.440 222.569,298.000 222.684 C 296.092 223.183,297.904 228.800,299.973 228.800 C 301.092 228.800,304.254 224.901,303.511 224.437 C 303.120 224.193,302.800 223.725,302.800 223.397 C 302.800 222.986,302.380 222.800,301.449 222.800 C 300.500 222.800,299.911 222.532,299.470 221.900 C 298.915 221.104,298.840 221.085,298.821 221.737 M309.200 231.437 C 309.200 232.538,309.013 232.924,308.400 233.084 C 306.801 233.502,307.333 235.600,309.037 235.600 C 310.138 235.600,310.524 235.787,310.684 236.400 C 310.933 237.352,311.600 237.471,311.600 236.563 C 311.600 236.212,311.943 235.835,312.363 235.726 C 312.783 235.616,313.216 235.183,313.326 234.763 C 313.435 234.343,313.812 234.000,314.163 234.000 C 315.071 234.000,314.952 233.333,314.000 233.084 C 313.560 232.969,313.200 232.609,313.200 232.284 C 313.200 231.959,312.840 231.599,312.400 231.484 C 311.960 231.369,311.600 230.988,311.600 230.637 C 311.600 230.196,311.231 230.000,310.400 230.000 C 309.289 230.000,309.200 230.107,309.200 231.437 " stroke="none" fill="#4800ff" fill-rule="evenodd"></path><path id="path3" d="M116.060 96.854 C 113.433 99.347,113.231 101.175,115.531 101.642 C 116.264 101.790,117.129 102.292,117.454 102.756 C 118.309 103.977,119.529 103.796,121.060 102.220 C 122.915 100.309,122.779 99.391,120.274 96.928 L 118.167 94.855 116.060 96.854 M122.000 100.192 C 122.000 100.795,121.705 101.240,121.200 101.400 C 120.760 101.540,120.400 101.912,120.400 102.227 C 120.400 103.148,117.896 102.965,117.293 102.000 C 116.974 101.490,116.360 101.200,115.597 101.200 C 113.692 101.200,113.972 99.595,116.279 97.281 L 118.158 95.396 120.079 97.317 C 121.300 98.538,122.000 99.586,122.000 100.192 M127.100 104.794 C 125.477 106.498,125.677 107.508,128.113 109.914 L 130.226 112.001 132.345 109.856 C 134.952 107.216,135.156 105.492,132.887 105.274 C 132.125 105.200,131.371 104.823,131.091 104.374 C 130.356 103.197,128.427 103.400,127.100 104.794 M130.800 104.800 C 131.102 105.364,131.638 105.600,132.614 105.600 C 134.723 105.600,134.527 107.105,132.102 109.538 L 130.204 111.442 128.302 109.540 C 127.256 108.494,126.400 107.276,126.400 106.833 C 126.400 104.716,129.892 103.103,130.800 104.800 M139.100 111.594 C 138.495 112.229,138.000 113.154,138.000 113.649 C 138.000 114.144,137.621 114.952,137.158 115.445 C 136.133 116.536,136.455 117.200,138.010 117.200 C 138.762 117.200,139.323 117.482,139.600 118.000 C 140.393 119.482,142.199 119.039,144.419 116.819 C 146.882 114.356,146.889 113.600,144.448 113.600 C 144.071 113.600,143.059 112.880,142.200 112.000 C 140.357 110.112,140.493 110.130,139.100 111.594 M145.021 114.400 C 145.979 114.400,145.922 114.516,144.038 116.400 C 141.905 118.533,140.692 118.893,140.000 117.600 C 139.698 117.036,139.162 116.800,138.186 116.800 C 136.621 116.800,136.424 116.427,137.600 115.693 C 138.061 115.405,138.400 114.760,138.400 114.171 C 138.400 113.601,138.872 112.670,139.468 112.065 L 140.537 110.981 142.271 112.691 C 143.396 113.800,144.362 114.400,145.021 114.400 M150.480 119.280 C 150.216 119.544,150.000 120.242,150.000 120.831 C 150.000 121.493,149.656 122.137,149.100 122.518 L 148.200 123.133 150.394 125.333 L 152.588 127.534 154.723 125.398 C 157.321 122.801,157.550 121.092,155.331 120.877 C 154.516 120.798,153.833 120.404,153.422 119.777 C 152.734 118.728,151.278 118.482,150.480 119.280 M153.083 119.900 C 153.436 120.856,154.003 121.187,155.300 121.194 C 157.065 121.204,156.749 122.753,154.504 125.096 L 152.607 127.075 150.689 125.085 C 148.823 123.148,148.793 123.080,149.586 122.525 C 150.072 122.184,150.400 121.508,150.400 120.844 C 150.400 119.102,152.514 118.358,153.083 119.900 M162.267 126.267 C 162.120 126.413,162.000 127.006,162.000 127.583 C 162.000 128.300,161.481 129.110,160.365 130.136 C 158.545 131.810,158.522 132.800,160.304 132.800 C 161.113 132.800,161.859 133.263,162.936 134.435 C 164.610 136.255,165.600 136.278,165.600 134.496 C 165.600 133.691,166.059 132.945,167.200 131.896 C 168.080 131.087,168.800 130.315,168.800 130.182 C 168.800 129.487,166.340 127.600,165.434 127.600 C 164.840 127.600,164.196 127.263,163.907 126.800 C 163.401 125.990,162.754 125.780,162.267 126.267 M163.600 127.200 C 163.899 127.759,164.438 128.000,165.387 128.000 C 166.373 128.000,166.813 128.210,166.988 128.763 C 167.121 129.183,167.519 129.637,167.872 129.772 C 168.383 129.968,168.178 130.328,166.857 131.548 C 165.588 132.719,165.200 133.373,165.200 134.339 C 165.200 135.977,164.893 135.925,163.200 134.000 C 162.110 132.761,161.512 132.407,160.500 132.404 C 158.821 132.399,158.866 132.101,160.800 130.400 C 162.039 129.310,162.393 128.712,162.396 127.700 C 162.401 126.234,162.959 126.002,163.600 127.200 M172.866 136.586 L 170.731 138.758 172.838 140.799 C 175.459 143.339,177.310 143.537,177.525 141.301 C 177.601 140.517,177.958 139.837,178.425 139.586 C 180.044 138.720,179.179 136.000,177.284 136.000 C 176.758 136.000,176.029 135.643,175.664 135.206 C 175.015 134.430,174.953 134.460,172.866 136.586 M177.781 136.800 C 179.102 136.800,179.287 138.748,177.997 139.085 C 177.431 139.233,177.121 139.753,176.946 140.847 C 176.667 142.591,175.086 143.131,174.614 141.643 C 174.482 141.227,174.019 140.794,173.587 140.681 C 173.154 140.567,172.800 140.209,172.800 139.884 C 172.800 139.559,172.441 139.200,172.003 139.085 C 171.295 138.900,171.417 138.656,173.103 136.892 L 175.000 134.908 175.881 135.854 C 176.365 136.374,177.220 136.800,177.781 136.800 M184.800 142.730 C 184.800 143.419,184.409 144.228,183.800 144.800 C 182.452 146.067,182.548 147.147,184.147 148.700 C 186.373 150.862,189.600 150.429,189.600 147.969 C 189.600 147.305,189.939 146.673,190.489 146.307 L 191.378 145.717 190.120 144.458 C 189.402 143.740,188.446 143.200,187.893 143.200 C 187.360 143.200,186.598 142.840,186.200 142.400 C 185.206 141.301,184.800 141.397,184.800 142.730 M187.218 143.600 C 188.859 143.600,191.262 145.786,189.987 146.119 C 189.388 146.276,189.200 146.669,189.200 147.763 L 189.200 149.200 187.296 149.200 C 185.826 149.200,185.279 149.018,184.893 148.400 C 184.618 147.960,184.125 147.600,183.797 147.600 C 182.935 147.600,183.024 145.640,183.900 145.317 C 184.865 144.961,185.182 144.403,185.219 143.000 C 185.249 141.880,185.275 141.860,185.612 142.700 C 185.879 143.363,186.302 143.600,187.218 143.600 M195.337 152.157 L 193.275 154.301 195.350 156.351 C 198.484 159.446,201.600 158.428,201.600 154.309 C 201.600 150.130,198.358 149.016,195.337 152.157 M199.481 151.187 C 199.594 151.619,200.027 152.082,200.443 152.214 C 201.020 152.397,201.200 152.836,201.200 154.058 C 201.200 156.769,197.695 159.391,197.000 157.200 C 196.860 156.760,196.500 156.400,196.200 156.400 C 195.900 156.400,195.548 156.066,195.418 155.657 C 195.288 155.249,194.781 154.721,194.291 154.484 C 193.726 154.211,193.619 154.042,194.000 154.020 C 194.330 154.002,195.320 153.186,196.200 152.208 C 197.915 150.301,199.149 149.917,199.481 151.187 M207.100 159.236 C 204.170 162.211,205.362 165.200,209.478 165.200 C 213.593 165.200,214.664 162.236,211.653 159.177 C 209.331 156.818,209.484 156.816,207.100 159.236 M211.049 159.200 C 211.352 159.200,211.600 159.487,211.600 159.837 C 211.600 160.188,211.960 160.569,212.400 160.684 C 212.957 160.830,213.200 161.230,213.200 162.000 C 213.200 162.770,212.957 163.170,212.400 163.316 C 211.960 163.431,211.600 163.812,211.600 164.163 C 211.600 164.649,211.184 164.800,209.842 164.800 C 207.087 164.800,204.239 161.677,206.300 160.917 C 206.685 160.775,207.126 160.465,207.280 160.229 C 208.580 158.234,209.395 157.690,209.949 158.448 C 210.251 158.862,210.746 159.200,211.049 159.200 M218.500 166.947 C 216.338 169.173,216.771 172.400,219.231 172.400 C 219.877 172.400,220.525 172.735,220.863 173.244 C 221.412 174.072,221.466 174.047,223.512 172.012 C 226.012 169.525,225.998 170.114,223.612 167.651 C 221.249 165.213,220.310 165.083,218.500 166.947 M221.884 166.800 C 221.999 167.240,222.359 167.600,222.684 167.600 C 223.009 167.600,223.364 167.939,223.472 168.354 C 223.581 168.769,224.059 169.283,224.535 169.495 L 225.400 169.882 224.500 170.168 C 224.005 170.325,223.600 170.700,223.600 171.000 C 223.600 171.300,223.240 171.660,222.800 171.800 C 222.360 171.940,222.000 172.312,222.000 172.627 C 222.000 173.397,221.749 173.349,220.800 172.400 C 220.360 171.960,219.550 171.600,219.000 171.600 C 217.643 171.600,217.479 168.307,218.800 167.600 C 219.240 167.365,219.600 166.908,219.600 166.586 C 219.600 165.647,221.632 165.838,221.884 166.800 M230.700 173.698 C 230.095 174.359,229.600 175.271,229.600 175.725 C 229.600 176.178,229.221 176.952,228.758 177.445 C 227.750 178.517,228.050 179.200,229.527 179.200 C 230.174 179.200,230.808 179.521,231.107 180.000 C 231.835 181.166,233.456 181.005,234.831 179.631 C 236.533 177.929,236.347 176.911,233.900 174.535 L 231.800 172.495 230.700 173.698 M233.616 174.800 C 233.827 174.800,234.000 175.087,234.000 175.437 C 234.000 175.788,234.360 176.169,234.800 176.284 C 235.952 176.585,235.791 177.870,234.431 179.231 C 233.070 180.591,231.785 180.752,231.484 179.600 C 231.324 178.987,230.938 178.800,229.837 178.800 C 229.047 178.800,228.400 178.620,228.400 178.400 C 228.400 178.180,228.651 178.000,228.957 178.000 C 229.566 178.000,230.000 177.160,230.000 175.981 C 230.000 174.511,231.680 173.241,232.516 174.081 C 232.909 174.476,233.404 174.800,233.616 174.800 M241.867 181.467 C 241.720 181.613,241.600 182.146,241.600 182.650 C 241.600 183.155,241.134 184.000,240.565 184.528 C 239.083 185.901,239.349 187.357,241.113 187.526 C 241.875 187.600,242.629 187.977,242.909 188.426 C 243.616 189.557,244.024 189.410,246.147 187.254 C 248.542 184.822,248.683 183.085,246.501 182.875 C 245.717 182.799,245.037 182.442,244.786 181.975 C 244.382 181.218,242.451 180.882,241.867 181.467 M244.400 182.400 C 244.702 182.964,245.238 183.200,246.214 183.200 C 247.487 183.200,247.600 183.298,247.600 184.400 C 247.600 185.231,247.404 185.600,246.963 185.600 C 246.612 185.600,246.233 185.954,246.119 186.387 C 246.006 186.819,245.573 187.282,245.157 187.414 C 244.741 187.546,244.400 187.912,244.400 188.227 C 244.400 188.542,244.220 188.800,244.000 188.800 C 243.780 188.800,243.600 188.549,243.600 188.243 C 243.600 187.598,242.748 187.200,241.367 187.200 C 240.119 187.200,239.997 185.444,241.200 184.800 C 241.764 184.498,242.000 183.962,242.000 182.986 C 242.000 181.347,243.624 180.951,244.400 182.400 M253.876 188.257 C 253.724 188.409,253.600 189.014,253.600 189.602 C 253.600 190.362,253.090 191.122,251.835 192.235 C 249.935 193.919,249.961 194.800,251.910 194.800 C 252.583 194.800,253.431 195.351,254.436 196.439 C 256.045 198.182,256.800 198.206,256.800 196.516 C 256.800 195.808,257.365 194.946,258.586 193.793 C 260.467 192.016,260.516 191.600,258.847 191.600 C 258.175 191.600,257.201 190.983,255.990 189.790 C 254.980 188.795,254.028 188.105,253.876 188.257 M255.700 190.112 C 256.085 190.257,256.400 190.631,256.400 190.945 C 256.400 191.601,257.244 192.000,258.633 192.000 C 259.548 192.000,259.514 192.085,258.000 193.553 C 256.788 194.729,256.400 195.418,256.400 196.390 L 256.400 197.673 254.615 195.837 C 253.407 194.594,252.498 194.000,251.801 194.000 C 250.802 194.000,250.818 193.958,252.386 192.516 C 253.580 191.419,254.003 190.716,254.013 189.816 C 254.024 188.784,254.099 188.695,254.513 189.225 C 254.781 189.568,255.315 189.968,255.700 190.112 M264.034 198.965 C 261.550 201.481,261.352 203.200,263.546 203.200 C 264.168 203.200,265.001 203.560,265.400 204.000 C 266.621 205.349,268.800 205.102,268.800 203.616 C 268.800 202.918,269.154 202.101,269.663 201.627 L 270.526 200.824 268.563 198.822 C 266.170 196.382,266.599 196.368,264.034 198.965 M266.916 198.000 C 267.031 198.440,267.412 198.800,267.763 198.800 C 268.113 198.800,268.400 199.087,268.400 199.437 C 268.400 199.788,268.760 200.169,269.200 200.284 C 269.640 200.399,270.000 200.631,270.000 200.800 C 270.000 200.969,269.640 201.201,269.200 201.316 C 268.587 201.476,268.400 201.862,268.400 202.963 C 268.400 204.667,266.302 205.199,265.884 203.600 C 265.724 202.987,265.338 202.800,264.237 202.800 C 262.907 202.800,262.800 202.711,262.800 201.600 C 262.800 200.769,262.996 200.400,263.437 200.400 C 263.788 200.400,264.165 200.057,264.274 199.637 C 264.384 199.217,264.817 198.784,265.237 198.674 C 265.657 198.565,266.000 198.188,266.000 197.837 C 266.000 196.929,266.667 197.048,266.916 198.000 M274.558 207.370 L 272.515 209.487 273.800 210.744 C 274.554 211.480,275.502 212.000,276.094 212.000 C 276.692 212.000,277.342 212.361,277.693 212.889 L 278.283 213.778 279.542 212.520 C 281.306 210.755,281.345 208.083,279.631 206.369 C 277.958 204.696,276.944 204.897,274.558 207.370 M279.240 206.842 C 280.770 208.481,280.827 210.512,279.379 211.854 C 278.190 212.957,278.000 213.007,278.000 212.218 C 278.000 211.867,277.430 211.529,276.563 211.367 C 275.773 211.219,274.738 210.718,274.263 210.254 L 273.400 209.410 275.200 207.524 C 277.340 205.282,277.722 205.217,279.240 206.842 M286.685 214.314 C 283.718 217.326,284.762 220.400,288.753 220.400 C 292.864 220.400,293.946 217.299,290.886 214.285 C 288.570 212.004,288.963 212.001,286.685 214.314 M289.200 213.373 C 289.200 213.688,289.560 214.060,290.000 214.200 C 290.440 214.340,290.800 214.729,290.800 215.064 C 290.800 215.400,291.160 215.769,291.600 215.884 C 292.157 216.030,292.400 216.430,292.400 217.200 C 292.400 217.970,292.157 218.370,291.600 218.516 C 291.160 218.631,290.800 219.012,290.800 219.363 C 290.800 219.861,290.363 220.000,288.800 220.000 C 287.237 220.000,286.800 219.861,286.800 219.363 C 286.800 219.012,286.440 218.631,286.000 218.516 C 284.984 218.250,284.838 216.000,285.837 216.000 C 286.188 216.000,286.567 215.646,286.681 215.213 C 286.794 214.781,287.227 214.318,287.643 214.186 C 288.059 214.054,288.400 213.688,288.400 213.373 C 288.400 213.058,288.580 212.800,288.800 212.800 C 289.020 212.800,289.200 213.058,289.200 213.373 M322.388 218.212 C 321.878 218.756,321.050 219.200,320.548 219.200 C 318.610 219.200,317.154 221.441,318.400 222.507 C 318.840 222.884,319.200 223.616,319.200 224.134 C 319.200 224.652,319.560 225.402,320.000 225.800 C 320.440 226.198,320.800 227.030,320.800 227.648 C 320.800 228.362,321.091 228.928,321.600 229.200 C 322.106 229.471,322.400 230.038,322.400 230.742 C 322.400 231.431,322.781 232.187,323.400 232.725 C 323.950 233.203,324.400 234.018,324.400 234.535 C 324.400 235.053,324.760 235.802,325.200 236.200 C 325.640 236.598,326.000 237.430,326.000 238.048 C 326.000 238.762,326.291 239.328,326.800 239.600 C 327.285 239.860,327.600 240.438,327.600 241.068 C 327.600 241.664,328.027 242.504,328.600 243.035 C 329.150 243.545,329.600 244.392,329.600 244.919 C 329.600 245.445,329.959 246.201,330.399 246.599 C 331.702 247.778,330.746 248.400,327.631 248.400 C 324.434 248.400,324.000 248.056,324.000 245.523 C 324.000 244.040,324.181 243.494,324.800 243.107 C 325.997 242.359,325.829 240.568,324.431 239.169 C 322.788 237.527,321.908 237.690,319.452 240.093 L 317.313 242.186 319.112 243.885 C 321.470 246.113,321.051 246.800,317.332 246.800 C 315.104 246.800,314.638 246.667,313.835 245.800 C 312.978 244.875,312.637 244.800,309.277 244.800 C 306.066 244.800,305.579 244.705,305.069 243.977 C 304.027 242.490,300.238 243.006,300.078 244.658 C 300.011 245.350,299.606 246.233,299.178 246.620 C 297.171 248.436,298.485 250.000,302.018 250.000 C 304.168 250.000,304.814 250.153,305.400 250.800 C 306.018 251.483,306.632 251.600,309.600 251.600 C 312.568 251.600,313.182 251.717,313.800 252.400 C 314.443 253.110,315.032 253.200,319.059 253.200 C 323.160 253.200,323.641 253.276,324.093 254.000 C 324.533 254.705,325.026 254.800,328.226 254.800 C 331.586 254.800,331.932 254.876,332.800 255.800 C 333.662 256.718,334.025 256.800,337.208 256.800 C 340.154 256.800,340.784 256.919,341.391 257.591 C 341.785 258.025,342.263 258.285,342.453 258.167 C 343.098 257.769,342.805 255.729,342.000 255.000 C 341.560 254.602,341.200 253.807,341.200 253.234 C 341.200 252.626,340.867 251.985,340.400 251.693 C 339.893 251.376,339.600 250.760,339.600 250.011 C 339.600 249.238,339.323 248.680,338.800 248.400 C 338.294 248.129,338.000 247.562,338.000 246.858 C 338.000 246.169,337.619 245.413,337.000 244.875 C 336.384 244.339,336.000 243.581,336.000 242.899 C 336.000 242.226,335.687 241.597,335.200 241.293 C 334.693 240.976,334.400 240.360,334.400 239.611 C 334.400 238.838,334.123 238.280,333.600 238.000 C 333.094 237.729,332.800 237.162,332.800 236.458 C 332.800 235.769,332.419 235.013,331.800 234.475 C 331.250 233.997,330.800 233.182,330.800 232.665 C 330.800 232.147,330.440 231.398,330.000 231.000 C 329.560 230.602,329.200 229.770,329.200 229.152 C 329.200 228.438,328.909 227.872,328.400 227.600 C 327.894 227.329,327.600 226.762,327.600 226.058 C 327.600 225.369,327.219 224.613,326.600 224.075 C 326.050 223.597,325.600 222.782,325.600 222.265 C 325.600 221.747,325.240 220.998,324.800 220.600 C 324.360 220.202,324.000 219.375,324.000 218.762 C 324.000 217.224,323.483 217.047,322.388 218.212 M324.427 221.091 C 324.997 221.240,325.200 221.645,325.200 222.633 C 325.200 223.562,325.445 224.103,326.000 224.400 C 326.474 224.654,326.800 225.238,326.800 225.833 C 326.800 226.391,327.245 227.250,327.800 227.765 C 328.469 228.385,328.800 229.119,328.800 229.983 C 328.800 230.938,329.008 231.329,329.600 231.484 C 330.199 231.641,330.400 232.030,330.400 233.033 C 330.400 233.962,330.645 234.503,331.200 234.800 C 331.674 235.054,332.000 235.638,332.000 236.233 C 332.000 236.791,332.445 237.650,333.000 238.165 C 333.648 238.765,334.000 239.524,334.000 240.319 C 334.000 241.195,334.229 241.619,334.800 241.800 C 335.401 241.991,335.600 242.405,335.600 243.464 C 335.600 244.538,335.791 244.925,336.400 245.084 C 337.000 245.241,337.200 245.630,337.200 246.637 C 337.200 247.630,337.462 248.153,338.200 248.637 C 338.934 249.118,339.200 249.645,339.200 250.619 C 339.200 251.595,339.412 252.013,340.000 252.200 C 340.601 252.391,340.800 252.805,340.800 253.864 C 340.800 254.938,340.991 255.325,341.600 255.484 C 342.193 255.639,342.393 256.017,342.375 256.947 C 342.351 258.098,342.320 258.127,341.988 257.300 C 341.646 256.450,341.401 256.400,337.600 256.400 C 334.132 256.400,333.539 256.303,333.317 255.700 C 332.894 254.556,332.372 254.413,328.596 254.406 C 325.429 254.401,324.932 254.303,324.493 253.600 C 324.039 252.873,323.560 252.800,319.243 252.800 C 314.830 252.800,314.478 252.743,314.284 252.000 C 314.092 251.266,313.738 251.200,310.025 251.200 C 306.533 251.200,305.939 251.104,305.717 250.500 C 305.305 249.383,304.775 249.213,301.700 249.206 C 298.673 249.200,297.280 247.736,299.600 247.000 C 300.152 246.825,300.477 246.260,300.651 245.173 C 300.951 243.297,304.057 242.689,304.600 244.400 C 304.831 245.128,305.205 245.200,308.781 245.200 C 312.528 245.200,312.738 245.246,313.363 246.200 C 313.964 247.117,314.263 247.200,316.977 247.200 C 321.709 247.200,322.465 246.201,319.687 243.618 L 318.200 242.237 320.064 240.318 C 322.248 238.070,322.487 238.025,324.031 239.569 C 325.399 240.937,325.549 242.235,324.383 242.605 C 323.645 242.840,323.578 243.142,323.683 245.732 L 323.800 248.600 327.600 248.600 L 331.400 248.600 331.529 247.470 C 331.629 246.603,331.466 246.290,330.829 246.124 C 330.200 245.959,330.000 245.586,330.000 244.576 C 330.000 243.737,329.727 243.052,329.261 242.723 C 328.854 242.435,328.400 241.545,328.251 240.744 C 328.070 239.769,327.719 239.220,327.190 239.082 C 326.584 238.923,326.400 238.532,326.400 237.400 C 326.400 236.262,326.218 235.877,325.600 235.716 C 324.999 235.559,324.800 235.170,324.800 234.157 C 324.800 233.240,324.543 232.646,324.000 232.307 C 323.560 232.032,323.200 231.392,323.200 230.885 C 323.200 230.377,322.750 229.545,322.200 229.035 C 321.531 228.415,321.200 227.681,321.200 226.817 C 321.200 225.862,320.992 225.471,320.400 225.316 C 319.801 225.159,319.600 224.770,319.600 223.767 C 319.600 222.850,319.355 222.297,318.821 222.011 C 317.787 221.458,319.484 219.600,321.022 219.600 C 321.564 219.600,322.321 219.232,322.704 218.781 C 323.389 217.976,323.402 217.985,323.527 219.426 C 323.617 220.471,323.874 220.947,324.427 221.091 M297.900 221.994 C 296.302 223.672,296.333 226.395,297.969 228.031 C 299.631 229.693,300.518 229.520,302.961 227.057 L 305.086 224.914 303.801 223.657 C 303.024 222.898,302.102 222.400,301.472 222.400 C 300.838 222.400,300.260 222.086,300.000 221.600 C 299.445 220.564,299.222 220.606,297.900 221.994 M301.449 222.800 C 302.380 222.800,302.800 222.986,302.800 223.397 C 302.800 223.725,303.120 224.193,303.511 224.437 C 304.254 224.901,301.092 228.800,299.973 228.800 C 297.904 228.800,296.092 223.183,298.000 222.684 C 298.440 222.569,298.809 222.143,298.821 221.737 C 298.840 221.085,298.915 221.104,299.470 221.900 C 299.911 222.532,300.500 222.800,301.449 222.800 M309.300 229.465 C 309.025 229.576,308.800 230.164,308.800 230.771 C 308.800 231.379,308.431 232.210,307.981 232.618 C 306.680 233.794,307.049 235.763,308.600 235.927 C 309.260 235.997,310.101 236.442,310.469 236.916 L 311.137 237.777 313.240 235.674 L 315.344 233.571 313.185 231.385 C 311.146 229.320,310.478 228.990,309.300 229.465 M311.600 230.637 C 311.600 230.988,311.960 231.369,312.400 231.484 C 312.840 231.599,313.200 231.959,313.200 232.284 C 313.200 232.609,313.560 232.969,314.000 233.084 C 314.952 233.333,315.071 234.000,314.163 234.000 C 313.812 234.000,313.435 234.343,313.326 234.763 C 313.216 235.183,312.783 235.616,312.363 235.726 C 311.943 235.835,311.600 236.212,311.600 236.563 C 311.600 237.471,310.933 237.352,310.684 236.400 C 310.524 235.787,310.138 235.600,309.037 235.600 C 307.333 235.600,306.801 233.502,308.400 233.084 C 309.013 232.924,309.200 232.538,309.200 231.437 C 309.200 230.107,309.289 230.000,310.400 230.000 C 311.231 230.000,311.600 230.196,311.600 230.637 " stroke="none" fill="#7a46ff" fill-rule="evenodd"></path><path id="path4" d="M45.286 326.700 L 45.400 330.600 47.591 330.724 C 50.472 330.887,50.388 330.621,50.388 339.600 C 50.388 348.579,50.472 348.313,47.591 348.476 L 45.400 348.600 45.285 352.504 L 45.171 356.407 66.285 356.304 L 87.400 356.200 87.504 339.500 L 87.609 322.800 66.390 322.800 L 45.171 322.800 45.286 326.700 M266.000 325.000 L 266.000 327.200 269.800 327.200 L 273.600 327.200 273.600 325.000 L 273.600 322.800 269.800 322.800 L 266.000 322.800 266.000 325.000 M95.481 329.853 C 95.326 330.007,95.200 336.043,95.200 343.267 L 95.200 356.400 106.751 356.400 C 119.974 356.400,119.104 356.135,119.280 360.217 L 119.400 363.000 123.304 363.115 L 127.209 363.229 127.104 346.515 L 127.000 329.800 123.200 329.800 L 119.400 329.800 119.293 339.568 C 119.223 345.954,119.033 349.520,118.744 349.868 C 118.406 350.274,116.623 350.400,111.200 350.400 C 105.777 350.400,103.994 350.274,103.656 349.868 C 103.367 349.520,103.177 345.954,103.107 339.568 L 103.000 329.800 99.381 329.686 C 97.390 329.623,95.635 329.698,95.481 329.853 M134.982 330.103 C 134.875 330.380,134.836 336.365,134.894 343.403 L 135.000 356.200 138.800 356.200 L 142.600 356.200 142.704 346.400 C 142.830 334.469,141.981 335.600,150.800 335.600 C 159.619 335.600,158.770 334.469,158.896 346.400 L 159.000 356.200 162.900 356.314 L 166.800 356.429 166.800 343.014 L 166.800 329.600 150.987 329.600 C 138.648 329.600,135.132 329.711,134.982 330.103 M174.667 329.867 C 174.520 330.013,174.400 331.363,174.400 332.867 L 174.400 335.600 185.938 335.600 C 198.413 335.600,198.811 335.669,198.794 337.831 C 198.778 339.788,198.781 339.787,186.315 340.000 L 174.600 340.200 174.600 348.200 L 174.600 356.200 190.500 356.305 L 206.400 356.409 206.400 343.005 L 206.400 329.600 190.667 329.600 C 182.013 329.600,174.813 329.720,174.667 329.867 M214.183 330.100 C 214.076 330.379,214.036 336.365,214.094 343.403 L 214.200 356.200 218.100 356.314 L 222.000 356.429 222.000 346.643 C 222.000 334.748,221.568 335.600,227.600 335.600 C 233.632 335.600,233.200 334.748,233.200 346.643 L 233.200 356.429 237.100 356.314 L 241.000 356.200 241.104 346.400 C 241.227 334.755,240.796 335.600,246.600 335.600 C 252.404 335.600,251.973 334.755,252.096 346.400 L 252.200 356.200 256.105 356.315 L 260.011 356.429 259.905 343.115 L 259.800 329.800 237.089 329.697 C 219.051 329.615,214.337 329.698,214.183 330.100 M266.000 343.000 L 266.000 356.400 269.800 356.400 L 273.600 356.400 273.600 343.000 L 273.600 329.600 269.800 329.600 L 266.000 329.600 266.000 343.000 M281.383 330.099 C 281.276 330.378,281.236 336.365,281.294 343.403 L 281.400 356.200 297.400 356.200 L 313.400 356.200 313.400 351.600 L 313.400 347.000 309.500 346.886 L 305.600 346.771 305.600 347.957 C 305.600 350.240,305.064 350.400,297.400 350.400 C 288.558 350.400,289.200 350.980,289.200 343.000 C 289.200 335.020,288.558 335.600,297.400 335.600 C 305.064 335.600,305.600 335.760,305.600 338.043 L 305.600 339.229 309.500 339.114 L 313.400 339.000 313.400 334.400 L 313.400 329.800 297.489 329.695 C 284.918 329.613,281.537 329.697,281.383 330.099 M321.200 337.795 L 321.200 346.000 332.426 346.000 C 344.807 346.000,345.200 346.068,345.200 348.200 C 345.200 350.332,344.807 350.400,332.426 350.400 L 321.200 350.400 321.200 353.405 L 321.200 356.409 337.100 356.305 L 353.000 356.200 353.000 348.200 L 353.000 340.200 341.285 340.000 C 328.757 339.786,328.821 339.798,328.806 337.762 C 328.791 335.694,329.353 335.600,341.749 335.600 L 353.235 335.600 353.118 332.700 L 353.000 329.800 337.100 329.695 L 321.200 329.591 321.200 337.795 M77.757 331.433 C 78.239 332.688,78.027 347.413,77.520 347.920 C 76.709 348.731,60.558 348.589,60.243 347.767 C 59.911 346.903,59.933 331.400,60.267 331.067 C 60.907 330.427,77.504 330.774,77.757 331.433 M198.171 346.629 C 198.517 346.974,198.800 347.681,198.800 348.200 C 198.800 350.209,198.102 350.400,190.745 350.400 C 186.824 350.400,183.620 350.225,183.174 349.986 C 182.154 349.440,182.103 347.013,183.100 346.432 C 184.337 345.712,197.425 345.882,198.171 346.629 " stroke="none" fill="#0094ff" fill-rule="evenodd"></path><path id="path5" d="M33.068 48.666 C 32.920 48.813,32.800 68.880,32.800 93.259 L 32.800 137.585 33.700 137.802 C 34.195 137.922,49.951 137.971,68.714 137.910 L 102.829 137.800 102.807 117.551 C 102.786 97.094,102.838 96.000,103.843 96.000 C 104.285 96.000,104.400 95.090,104.400 91.574 C 104.400 89.139,104.586 86.799,104.814 86.374 C 105.220 85.616,106.145 85.600,150.018 85.600 L 194.808 85.600 194.704 67.100 L 194.600 48.600 113.968 48.499 C 69.620 48.443,33.215 48.518,33.068 48.666 M112.800 94.626 C 112.800 95.968,112.123 97.200,111.386 97.200 C 110.879 97.200,110.800 99.951,110.800 117.600 L 110.800 138.000 140.381 138.000 C 170.597 138.000,172.000 137.933,172.000 136.498 C 172.000 136.183,172.343 135.835,172.763 135.726 C 173.183 135.616,173.616 135.183,173.726 134.763 C 174.007 133.686,176.000 133.715,176.284 134.800 C 176.441 135.399,176.830 135.600,177.833 135.600 C 179.116 135.600,180.013 136.396,179.861 137.400 C 179.770 137.997,193.537 138.151,194.247 137.561 C 194.705 137.181,194.800 133.368,194.800 115.351 L 194.800 93.600 153.800 93.600 L 112.800 93.600 112.800 94.626 M119.400 95.200 C 119.540 95.640,119.929 96.000,120.264 96.000 C 120.600 96.000,120.967 96.354,121.081 96.787 C 121.194 97.219,121.627 97.682,122.043 97.814 C 123.182 98.175,123.146 101.836,122.000 102.200 C 121.560 102.340,121.200 102.693,121.200 102.984 C 121.200 104.256,117.244 104.455,116.916 103.200 C 116.779 102.675,116.370 102.400,115.727 102.400 C 112.414 102.400,112.217 99.711,115.300 96.587 C 117.537 94.321,118.967 93.837,119.400 95.200 M131.277 103.539 C 131.565 103.946,132.474 104.404,133.297 104.557 C 135.445 104.956,136.020 108.556,134.019 109.079 C 133.609 109.186,133.184 109.617,133.074 110.037 C 132.965 110.457,132.588 110.800,132.237 110.800 C 131.887 110.800,131.600 111.064,131.600 111.386 C 131.600 113.173,130.066 112.814,127.626 110.456 C 124.749 107.676,124.317 104.400,126.829 104.400 C 127.033 104.400,127.200 104.145,127.200 103.833 C 127.200 102.633,130.470 102.398,131.277 103.539 M142.000 111.014 C 142.000 111.336,142.287 111.600,142.637 111.600 C 142.988 111.600,143.366 111.950,143.478 112.378 C 143.623 112.931,144.093 113.192,145.100 113.278 C 147.688 113.500,147.641 114.423,144.904 117.160 C 142.102 119.962,140.529 120.378,139.378 118.622 C 138.927 117.935,138.301 117.608,137.269 117.522 C 135.512 117.376,134.967 115.967,136.376 115.213 C 136.866 114.951,137.200 114.372,137.200 113.786 C 137.200 112.256,140.174 109.451,141.209 110.005 C 141.644 110.238,142.000 110.692,142.000 111.014 M153.693 119.200 C 153.991 119.678,154.626 120.000,155.268 120.000 C 156.663 120.000,157.600 120.965,157.600 122.400 C 157.600 123.480,156.730 124.800,156.018 124.800 C 155.839 124.800,155.599 125.160,155.484 125.600 C 155.369 126.040,155.009 126.400,154.684 126.400 C 154.359 126.400,153.999 126.760,153.884 127.200 C 153.740 127.750,153.338 128.000,152.600 128.000 C 151.862 128.000,151.460 127.750,151.316 127.200 C 151.201 126.760,150.841 126.400,150.516 126.400 C 150.191 126.400,149.833 126.046,149.719 125.613 C 149.606 125.181,149.190 124.724,148.794 124.598 C 147.371 124.146,147.394 122.252,148.828 121.877 C 149.401 121.727,149.600 121.322,149.600 120.304 C 149.600 118.184,152.560 117.386,153.693 119.200 M164.077 125.939 C 164.365 126.346,165.275 126.804,166.100 126.957 C 166.948 127.115,167.600 127.469,167.600 127.772 C 167.600 128.067,168.050 128.603,168.600 128.963 C 169.977 129.866,169.870 130.320,167.836 132.187 C 166.693 133.237,166.024 134.214,165.936 134.963 C 165.676 137.170,164.612 137.213,162.667 135.096 C 161.312 133.619,160.654 133.200,159.691 133.200 C 157.541 133.200,157.568 131.829,159.759 129.818 C 161.182 128.511,161.600 127.848,161.600 126.897 C 161.600 125.186,163.127 124.595,164.077 125.939 " stroke="none" fill="#ff6a00" fill-rule="evenodd"></path></g></svg>