<svg id="svg" version="1.1" width="400" height="406.8965517241379" xmlns="http://www.w3.org/2000/svg" xmlns:xlink="http://www.w3.org/1999/xlink" style="display: block;"><g id="svgg"><path id="path0" d="M0.000 203.400 L 0.000 406.800 200.000 406.800 L 400.000 406.800 400.000 203.400 L 400.000 0.000 200.000 0.000 L 0.000 0.000 0.000 203.400 M296.720 50.080 C 297.274 50.634,297.420 83.435,296.872 84.297 C 296.627 84.684,290.511 84.817,269.378 84.897 L 242.200 85.000 242.098 119.900 L 241.996 154.800 264.955 154.800 C 285.522 154.800,287.940 154.866,288.157 155.433 C 288.892 157.349,288.402 185.971,287.626 186.386 C 287.105 186.665,270.236 186.800,235.828 186.800 L 184.803 186.800 184.702 233.100 L 184.600 279.400 174.449 279.507 C 167.296 279.582,164.137 279.479,163.749 279.158 C 163.289 278.776,163.200 271.227,163.200 232.751 L 163.200 186.800 137.276 186.800 C 117.168 186.800,111.200 186.688,110.671 186.300 C 110.046 185.841,109.998 184.523,110.095 170.400 L 110.200 155.000 118.600 154.800 L 127.000 154.600 127.104 134.221 C 127.184 118.528,127.322 113.770,127.704 113.527 C 128.352 113.116,149.248 113.116,149.896 113.527 C 150.278 113.770,150.416 118.528,150.496 134.221 L 150.600 154.600 182.800 154.600 L 215.000 154.600 215.000 119.800 L 215.000 85.000 193.600 84.800 L 172.200 84.600 172.096 67.600 C 172.038 58.250,172.077 50.375,172.183 50.100 C 172.458 49.384,296.004 49.364,296.720 50.080 M125.916 324.540 C 126.083 329.617,127.396 329.200,111.231 329.200 C 96.647 329.200,96.400 329.230,96.400 331.000 C 96.400 332.772,96.635 332.800,111.437 332.800 C 123.905 332.800,125.542 332.872,125.757 333.433 C 126.299 334.845,126.023 354.283,125.454 354.755 C 125.061 355.081,119.565 355.179,105.754 355.104 L 86.600 355.000 86.600 350.800 L 86.600 346.600 101.000 346.400 L 115.400 346.200 115.519 344.164 C 115.697 341.100,116.304 341.224,100.565 341.105 L 86.600 341.000 86.493 330.896 L 86.386 320.792 106.093 320.896 L 125.800 321.000 125.916 324.540 M236.157 321.433 C 236.503 322.334,236.446 324.508,236.061 325.115 C 235.821 325.493,234.671 325.600,231.767 325.515 L 227.800 325.400 227.675 323.654 C 227.471 320.818,227.498 320.800,231.945 320.800 C 235.196 320.800,235.958 320.915,236.157 321.433 M141.126 324.590 C 141.315 327.586,141.346 327.600,147.606 327.600 C 153.877 327.600,153.600 327.436,153.600 331.153 C 153.600 334.346,153.498 334.400,147.400 334.400 C 140.810 334.400,141.200 333.982,141.200 341.047 C 141.200 348.658,140.636 348.000,147.163 348.000 C 150.890 348.000,152.793 348.153,153.120 348.480 C 153.752 349.112,153.752 354.088,153.120 354.720 C 152.613 355.227,134.699 355.443,133.433 354.957 C 132.764 354.701,132.422 323.312,133.080 322.653 C 133.234 322.499,135.079 322.424,137.180 322.486 L 141.000 322.600 141.126 324.590 M208.325 322.910 C 208.558 323.191,208.805 324.316,208.874 325.410 L 209.000 327.400 214.584 327.512 C 220.958 327.639,220.785 327.541,220.794 331.051 C 220.802 334.311,220.718 334.355,214.374 334.488 L 209.000 334.600 208.890 341.300 L 208.781 348.000 214.310 348.000 C 220.820 348.000,220.800 347.989,220.800 351.600 C 220.800 353.120,220.596 354.444,220.320 354.720 C 219.638 355.402,201.162 355.402,200.480 354.720 C 199.958 354.198,199.752 323.182,200.267 322.667 C 200.778 322.156,207.877 322.370,208.325 322.910 M193.106 340.952 C 193.181 350.325,193.080 354.262,192.757 354.652 C 192.242 355.272,161.853 355.475,160.891 354.865 C 160.501 354.617,160.408 352.641,160.491 346.371 L 160.600 338.200 172.400 337.985 C 186.026 337.736,184.480 337.981,184.324 336.100 L 184.200 334.600 172.400 334.400 L 160.600 334.200 160.480 331.440 C 160.415 329.922,160.455 328.434,160.570 328.135 C 160.742 327.686,163.600 327.609,176.889 327.695 L 193.000 327.800 193.106 340.952 M235.920 328.080 C 236.273 328.433,236.400 331.947,236.400 341.400 C 236.400 350.853,236.273 354.367,235.920 354.720 C 235.272 355.368,228.728 355.368,228.080 354.720 C 227.559 354.199,227.354 328.380,227.867 327.867 C 228.351 327.382,235.409 327.569,235.920 328.080 M275.757 328.233 C 276.217 329.431,276.023 337.017,275.520 337.520 C 274.853 338.187,268.238 338.170,267.684 337.500 C 267.457 337.225,267.210 336.460,267.135 335.800 L 267.000 334.600 259.852 334.491 C 250.836 334.353,251.552 333.733,251.690 341.557 L 251.800 347.800 259.400 347.800 L 267.000 347.800 267.200 346.400 L 267.400 345.000 271.140 344.884 C 273.554 344.810,275.079 344.934,275.440 345.233 C 276.175 345.843,276.243 353.997,275.520 354.720 C 275.012 355.228,245.122 355.452,243.833 354.957 C 243.173 354.704,242.819 328.514,243.467 327.867 C 244.116 327.217,275.504 327.573,275.757 328.233 M315.519 330.536 C 315.698 334.641,316.452 334.400,303.431 334.400 C 291.555 334.400,291.200 334.453,291.200 336.231 C 291.200 337.899,291.772 337.983,303.833 338.094 L 315.400 338.200 315.509 346.149 C 315.584 351.674,315.478 354.265,315.160 354.649 C 314.684 355.222,284.879 355.512,283.433 354.957 C 282.598 354.637,282.514 349.136,283.333 348.455 C 283.689 348.161,287.663 347.977,295.233 347.906 L 306.600 347.800 306.600 346.400 L 306.600 345.000 294.800 344.800 L 283.000 344.600 282.891 336.611 C 282.831 332.217,282.872 328.390,282.980 328.107 C 283.138 327.695,286.430 327.612,299.289 327.695 L 315.400 327.800 315.519 330.536 M169.212 345.386 C 168.920 345.737,168.817 346.413,168.965 347.004 L 169.220 348.018 176.710 347.909 L 184.200 347.800 184.200 346.400 L 184.200 345.000 176.956 344.891 C 170.893 344.800,169.631 344.881,169.212 345.386 " stroke="none" fill="#ffffff" fill-rule="evenodd"></path><path id="path1" d="M216.400 119.800 L 216.400 154.400 228.600 154.400 L 240.800 154.400 240.800 119.800 L 240.800 85.200 228.600 85.200 L 216.400 85.200 216.400 119.800 M234.720 91.280 C 235.480 92.040,235.407 147.730,234.646 148.362 C 234.269 148.675,232.190 148.786,228.146 148.711 L 222.200 148.600 222.096 120.200 C 222.040 104.580,222.079 91.575,222.184 91.300 C 222.449 90.606,234.028 90.588,234.720 91.280 M164.498 232.700 L 164.600 278.600 174.200 278.600 L 183.800 278.600 183.902 232.700 L 184.003 186.800 174.200 186.800 L 164.397 186.800 164.498 232.700 M177.502 232.357 C 177.618 276.501,177.986 272.486,173.838 272.316 L 171.000 272.200 170.897 233.200 C 170.840 211.750,170.882 193.967,170.991 193.683 C 171.134 193.307,172.036 193.198,174.294 193.283 L 177.400 193.400 177.502 232.357 " stroke="none" fill="#4800ff" fill-rule="evenodd"></path><path id="path2" d="M240.984 84.900 C 240.879 85.175,240.840 101.060,240.897 120.200 L 241.000 155.000 241.200 119.700 C 241.310 100.285,241.349 84.400,241.287 84.400 C 241.226 84.400,241.089 84.625,240.984 84.900 M215.600 119.753 C 215.600 142.655,215.738 154.838,216.000 155.000 C 216.266 155.164,216.400 143.479,216.400 120.247 C 216.400 97.345,216.262 85.162,216.000 85.000 C 215.734 84.836,215.600 96.521,215.600 119.753 M164.184 186.500 C 164.080 186.775,164.040 207.700,164.097 233.000 L 164.200 279.000 173.750 279.107 C 180.459 279.183,183.464 279.079,183.850 278.758 C 184.422 278.284,184.723 188.106,184.157 186.633 C 183.834 185.790,164.504 185.661,164.184 186.500 M183.902 232.700 L 183.800 278.600 174.200 278.600 L 164.600 278.600 164.498 232.700 L 164.397 186.800 174.200 186.800 L 184.003 186.800 183.902 232.700 " stroke="none" fill="#7944ff" fill-rule="evenodd"></path><path id="path3" d="M179.429 57.029 C 178.670 57.787,178.478 75.851,179.214 77.226 C 179.727 78.185,288.565 78.475,289.520 77.520 C 290.203 76.837,290.203 57.563,289.520 56.880 C 288.692 56.052,180.259 56.198,179.429 57.029 M289.200 67.201 L 289.200 77.203 234.500 77.101 L 179.800 77.000 179.692 67.608 C 179.633 62.443,179.673 57.988,179.780 57.708 C 179.936 57.301,190.792 57.200,234.587 57.200 L 289.200 57.200 289.200 67.201 M117.067 161.867 C 116.315 162.618,116.789 179.166,117.574 179.586 C 118.100 179.867,144.231 180.000,199.200 180.000 C 254.169 180.000,280.300 179.867,280.826 179.586 C 281.606 179.169,282.067 164.083,281.357 162.233 C 281.104 161.572,117.725 161.208,117.067 161.867 M280.600 170.600 L 280.600 178.600 199.100 178.701 L 117.600 178.802 117.600 170.600 L 117.600 162.398 199.100 162.499 L 280.600 162.600 280.600 170.600 M169.523 185.899 C 172.231 185.968,176.551 185.968,179.123 185.899 C 181.695 185.829,179.480 185.772,174.200 185.773 C 168.920 185.773,166.815 185.830,169.523 185.899 M163.600 232.376 C 163.600 257.883,163.735 278.836,163.900 278.938 C 164.065 279.040,164.200 258.171,164.200 232.562 C 164.200 206.953,164.065 186.000,163.900 186.000 C 163.735 186.000,163.600 206.869,163.600 232.376 M184.498 232.620 C 184.435 262.188,184.260 278.409,184.001 278.721 C 183.775 278.995,183.863 278.979,184.203 278.685 C 184.731 278.230,184.791 272.702,184.700 232.584 L 184.597 187.000 184.498 232.620 " stroke="none" fill="#a1795e" fill-rule="evenodd"></path><path id="path4" d="M117.600 170.600 L 117.600 178.802 199.100 178.701 L 280.600 178.600 280.600 170.600 L 280.600 162.600 199.100 162.499 L 117.600 162.398 117.600 170.600 M86.493 330.896 L 86.600 341.000 100.565 341.105 C 116.304 341.224,115.697 341.100,115.519 344.164 L 115.400 346.200 101.000 346.400 L 86.600 346.600 86.600 350.800 L 86.600 355.000 105.754 355.104 C 119.565 355.179,125.061 355.081,125.454 354.755 C 126.023 354.283,126.299 334.845,125.757 333.433 C 125.542 332.872,123.905 332.800,111.437 332.800 C 96.635 332.800,96.400 332.772,96.400 331.000 C 96.400 329.230,96.647 329.200,111.231 329.200 C 127.396 329.200,126.083 329.617,125.916 324.540 L 125.800 321.000 106.093 320.896 L 86.386 320.792 86.493 330.896 M227.762 321.354 C 227.645 321.659,227.606 322.694,227.675 323.654 L 227.800 325.400 231.767 325.515 C 236.120 325.642,236.383 325.517,236.394 323.333 C 236.406 320.865,236.292 320.800,231.945 320.800 C 228.931 320.800,227.924 320.933,227.762 321.354 M133.080 322.653 C 132.422 323.312,132.764 354.701,133.433 354.957 C 134.699 355.443,152.613 355.227,153.120 354.720 C 153.752 354.088,153.752 349.112,153.120 348.480 C 152.793 348.153,150.890 348.000,147.163 348.000 C 140.636 348.000,141.200 348.658,141.200 341.047 C 141.200 333.982,140.810 334.400,147.400 334.400 C 153.498 334.400,153.600 334.346,153.600 331.153 C 153.600 327.436,153.877 327.600,147.606 327.600 C 141.346 327.600,141.315 327.586,141.126 324.590 L 141.000 322.600 137.180 322.486 C 135.079 322.424,133.234 322.499,133.080 322.653 M200.267 322.667 C 199.752 323.182,199.958 354.198,200.480 354.720 C 201.162 355.402,219.638 355.402,220.320 354.720 C 220.596 354.444,220.800 353.120,220.800 351.600 C 220.800 347.989,220.820 348.000,214.310 348.000 L 208.781 348.000 208.890 341.300 L 209.000 334.600 214.374 334.488 C 220.718 334.355,220.802 334.311,220.794 331.051 C 220.785 327.541,220.958 327.639,214.584 327.512 L 209.000 327.400 208.874 325.410 C 208.805 324.316,208.558 323.191,208.325 322.910 C 207.877 322.370,200.778 322.156,200.267 322.667 M160.570 328.135 C 160.455 328.434,160.415 329.922,160.480 331.440 L 160.600 334.200 172.400 334.400 L 184.200 334.600 184.324 336.100 C 184.480 337.981,186.026 337.736,172.400 337.985 L 160.600 338.200 160.491 346.371 C 160.408 352.641,160.501 354.617,160.891 354.865 C 161.853 355.475,192.242 355.272,192.757 354.652 C 193.080 354.262,193.181 350.325,193.106 340.952 L 193.000 327.800 176.889 327.695 C 163.600 327.609,160.742 327.686,160.570 328.135 M227.867 327.867 C 227.354 328.380,227.559 354.199,228.080 354.720 C 228.728 355.368,235.272 355.368,235.920 354.720 C 236.273 354.367,236.400 350.853,236.400 341.400 C 236.400 331.947,236.273 328.433,235.920 328.080 C 235.409 327.569,228.351 327.382,227.867 327.867 M243.467 327.867 C 242.819 328.514,243.173 354.704,243.833 354.957 C 245.122 355.452,275.012 355.228,275.520 354.720 C 276.243 353.997,276.175 345.843,275.440 345.233 C 275.079 344.934,273.554 344.810,271.140 344.884 L 267.400 345.000 267.200 346.400 L 267.000 347.800 259.400 347.800 L 251.800 347.800 251.690 341.557 C 251.552 333.733,250.836 334.353,259.852 334.491 L 267.000 334.600 267.135 335.800 C 267.210 336.460,267.457 337.225,267.684 337.500 C 268.238 338.170,274.853 338.187,275.520 337.520 C 276.023 337.017,276.217 329.431,275.757 328.233 C 275.504 327.573,244.116 327.217,243.467 327.867 M282.980 328.107 C 282.872 328.390,282.831 332.217,282.891 336.611 L 283.000 344.600 294.800 344.800 L 306.600 345.000 306.600 346.400 L 306.600 347.800 295.233 347.906 C 287.663 347.977,283.689 348.161,283.333 348.455 C 282.514 349.136,282.598 354.637,283.433 354.957 C 284.879 355.512,314.684 355.222,315.160 354.649 C 315.478 354.265,315.584 351.674,315.509 346.149 L 315.400 338.200 303.833 338.094 C 291.772 337.983,291.200 337.899,291.200 336.231 C 291.200 334.453,291.555 334.400,303.431 334.400 C 316.452 334.400,315.698 334.641,315.519 330.536 L 315.400 327.800 299.289 327.695 C 286.430 327.612,283.138 327.695,282.980 328.107 M184.200 346.400 L 184.200 347.800 176.710 347.909 L 169.220 348.018 168.965 347.004 C 168.444 344.927,169.029 344.772,176.956 344.891 L 184.200 345.000 184.200 346.400 " stroke="none" fill="#0094ff" fill-rule="evenodd"></path><path id="path5" d="M172.983 50.901 C 172.877 51.176,172.838 58.691,172.895 67.601 L 173.000 83.800 194.054 83.904 C 212.138 83.992,215.178 84.091,215.603 84.604 C 216.346 85.499,240.456 85.496,241.200 84.600 C 241.634 84.077,245.203 84.000,268.849 84.000 L 296.000 84.000 296.000 67.200 L 296.000 50.400 234.587 50.400 C 185.792 50.400,173.135 50.503,172.983 50.901 M289.800 67.200 L 289.800 77.800 234.843 77.901 C 194.559 77.976,179.740 77.883,179.343 77.552 C 178.601 76.937,178.544 57.616,179.281 56.879 C 179.653 56.507,192.320 56.420,234.781 56.499 L 289.800 56.600 289.800 67.200 M222.184 91.300 C 222.079 91.575,222.040 104.580,222.096 120.200 L 222.200 148.600 228.146 148.711 C 232.190 148.786,234.269 148.675,234.646 148.362 C 235.407 147.730,235.480 92.040,234.720 91.280 C 234.028 90.588,222.449 90.606,222.184 91.300 M128.096 134.700 L 128.200 155.000 138.800 155.000 L 149.400 155.000 149.504 134.700 L 149.607 114.400 138.800 114.400 L 127.993 114.400 128.096 134.700 M143.120 120.880 C 143.933 121.693,143.793 147.350,142.971 148.171 C 142.495 148.648,141.487 148.800,138.800 148.800 C 136.113 148.800,135.105 148.648,134.629 148.171 C 133.807 147.350,133.667 121.693,134.480 120.880 C 135.134 120.226,142.466 120.226,143.120 120.880 M216.400 154.800 C 216.400 155.058,220.733 155.200,228.600 155.200 C 236.467 155.200,240.800 155.058,240.800 154.800 C 240.800 154.542,236.467 154.400,228.600 154.400 C 220.733 154.400,216.400 154.542,216.400 154.800 M170.991 193.683 C 170.882 193.967,170.840 211.750,170.897 233.200 L 171.000 272.200 173.838 272.316 C 177.986 272.486,177.618 276.501,177.502 232.357 L 177.400 193.400 174.294 193.283 C 172.036 193.198,171.134 193.307,170.991 193.683 " stroke="none" fill="#ff006e" fill-rule="evenodd"></path><path id="path6" d="M172.881 50.479 C 172.328 51.032,172.179 83.032,172.725 83.893 C 172.966 84.271,177.984 84.411,194.299 84.493 C 205.993 84.552,215.427 84.467,215.264 84.304 C 215.101 84.141,205.525 83.961,193.984 83.904 L 173.000 83.800 173.000 67.200 L 173.000 50.600 234.500 50.499 L 296.000 50.397 296.000 67.199 L 296.000 84.000 268.843 84.000 C 244.032 84.000,241.664 84.057,241.434 84.657 C 241.234 85.176,241.296 85.218,241.728 84.859 C 242.121 84.533,249.858 84.377,269.238 84.303 L 296.200 84.200 296.200 67.200 L 296.200 50.200 234.781 50.099 C 187.342 50.021,173.253 50.107,172.881 50.479 M127.790 114.494 C 127.685 114.772,127.555 124.090,127.500 135.200 L 127.400 155.400 119.200 155.600 L 111.000 155.800 110.895 170.700 L 110.790 185.600 137.095 185.611 C 237.818 185.652,287.021 185.539,287.294 185.266 C 287.468 185.092,287.563 178.391,287.505 170.375 L 287.400 155.800 264.800 155.700 C 252.370 155.645,241.947 155.505,241.637 155.389 C 240.897 155.110,215.893 155.113,215.163 155.392 C 214.853 155.510,200.110 155.560,182.400 155.503 L 150.200 155.400 150.000 134.800 L 149.800 114.200 138.890 114.094 C 130.376 114.010,127.938 114.098,127.790 114.494 M149.504 134.700 L 149.400 155.000 138.800 155.000 L 128.200 155.000 128.096 134.700 L 127.993 114.400 138.800 114.400 L 149.607 114.400 149.504 134.700 M134.480 120.880 C 133.667 121.693,133.807 147.350,134.629 148.171 C 135.105 148.648,136.113 148.800,138.800 148.800 C 141.487 148.800,142.495 148.648,142.971 148.171 C 143.793 147.350,143.933 121.693,143.120 120.880 C 142.466 120.226,135.134 120.226,134.480 120.880 M142.600 134.400 L 142.600 147.800 138.800 147.800 L 135.000 147.800 134.894 134.803 C 134.767 119.177,134.318 120.743,138.893 120.885 L 142.600 121.000 142.600 134.400 M281.357 162.233 C 282.067 164.083,281.606 179.169,280.826 179.586 C 280.300 179.867,254.169 180.000,199.200 180.000 C 144.231 180.000,118.100 179.867,117.574 179.586 C 116.789 179.166,116.315 162.618,117.067 161.867 C 117.725 161.208,281.104 161.572,281.357 162.233 " stroke="none" fill="#ff6a00" fill-rule="evenodd"></path><path id="path7" d="M172.183 50.100 C 172.077 50.375,172.038 58.250,172.096 67.600 L 172.200 84.600 193.600 84.800 L 215.000 85.000 215.000 119.800 L 215.000 154.600 182.800 154.600 L 150.600 154.600 150.496 134.221 C 150.416 118.528,150.278 113.770,149.896 113.527 C 149.248 113.116,128.352 113.116,127.704 113.527 C 127.322 113.770,127.184 118.528,127.104 134.221 L 127.000 154.600 118.885 154.800 C 112.260 154.963,110.700 155.110,110.391 155.600 C 109.858 156.445,109.880 184.628,110.414 185.626 C 110.817 186.379,111.534 186.400,137.014 186.400 L 163.200 186.400 163.200 232.551 C 163.200 271.197,163.289 278.776,163.749 279.158 C 164.665 279.917,184.474 279.579,184.732 278.800 C 184.896 278.304,184.824 278.288,184.316 278.707 C 183.848 279.093,181.326 279.189,173.750 279.107 L 163.800 279.000 163.600 232.400 L 163.400 185.800 137.095 185.697 L 110.790 185.594 110.895 170.697 L 111.000 155.800 119.200 155.600 L 127.400 155.400 127.600 134.800 L 127.800 114.200 138.800 114.200 L 149.800 114.200 150.000 134.800 L 150.200 155.400 182.800 155.400 L 215.400 155.400 215.400 120.000 L 215.400 84.600 194.221 84.496 C 177.889 84.417,172.971 84.279,172.728 83.896 C 172.126 82.950,172.332 50.955,172.943 50.448 C 173.341 50.117,189.827 50.024,234.843 50.099 L 296.200 50.200 296.200 67.200 L 296.200 84.200 269.238 84.303 C 250.130 84.376,242.119 84.536,241.738 84.852 C 241.130 85.356,240.925 154.147,241.528 155.097 C 241.772 155.481,247.009 155.617,264.622 155.697 L 287.400 155.800 287.400 170.600 L 287.400 185.400 236.313 185.502 L 185.227 185.603 184.764 186.502 C 184.383 187.243,184.395 187.313,184.831 186.900 C 185.248 186.505,196.046 186.400,236.047 186.400 C 263.925 186.400,287.019 186.291,287.367 186.157 C 288.196 185.839,288.343 156.103,287.520 155.280 C 287.158 154.918,281.502 154.800,264.518 154.800 L 241.996 154.800 242.098 119.900 L 242.200 85.000 269.378 84.897 C 290.511 84.817,296.627 84.684,296.872 84.297 C 297.420 83.435,297.274 50.634,296.720 50.080 C 296.004 49.364,172.458 49.384,172.183 50.100 M135.062 121.100 C 134.960 121.265,136.642 121.400,138.800 121.400 C 140.958 121.400,142.640 121.265,142.538 121.100 C 142.436 120.935,140.754 120.800,138.800 120.800 C 136.846 120.800,135.164 120.935,135.062 121.100 M138.800 147.600 L 135.000 147.847 138.676 147.923 C 140.783 147.967,142.458 147.829,142.600 147.600 C 142.736 147.380,142.792 147.234,142.724 147.277 C 142.656 147.319,140.890 147.464,138.800 147.600 " stroke="none" fill="#ff9bc6" fill-rule="evenodd"></path><path id="path8" d="M179.780 57.707 C 179.673 57.987,179.633 62.443,179.692 67.608 L 179.800 77.000 234.507 77.101 L 289.214 77.203 289.107 67.301 L 289.000 57.400 234.488 57.299 C 190.620 57.217,179.938 57.297,179.780 57.707 " stroke="none" fill="#00ff21" fill-rule="evenodd"></path><path id="path9" d="M135.081 121.453 C 134.926 121.607,134.800 127.560,134.800 134.681 L 134.800 147.629 138.700 147.514 L 142.600 147.400 142.600 134.400 L 142.600 121.400 138.981 121.286 C 136.990 121.223,135.235 121.298,135.081 121.453 M287.520 155.280 C 287.933 155.693,288.303 185.708,287.900 186.096 C 287.845 186.149,264.670 186.285,236.400 186.399 L 185.000 186.606 235.926 186.703 C 270.447 186.769,287.102 186.667,287.626 186.386 C 288.937 185.684,288.791 154.800,287.477 154.800 C 287.185 154.800,287.199 154.959,287.520 155.280 M124.100 186.700 C 131.305 186.761,143.095 186.761,150.300 186.700 C 157.505 186.639,151.610 186.589,137.200 186.589 C 122.790 186.589,116.895 186.639,124.100 186.700 " stroke="none" fill="#ffd800" fill-rule="evenodd"></path></g></svg>